999
"DXF R12 Output" (www.mydxf.blogspot.com)
 0 
SECTION
 2 
HEADER
 9 
$ACADVER
 1 
AC1009
 9 
$EXTMIN
 10 
 0 
 20 
 0 
 9 
$EXTMAX
 10 
 8.5 
 20 
 11 
 0 
ENDSEC
 0 
SECTION
 2 
ENTITIES
0
LINE
8
Layer 1
10
7.475417
20
292.634142
11
267.061327
21
292.634142
0
LINE
8
Layer 1
10
267.061327
20
292.634142
11
267.061327
21
93.048252
0
LINE
8
Layer 1
10
267.061327
20
93.048252
11
7.475417
21
93.048252
0
LINE
8
Layer 1
10
7.475417
20
93.048252
11
7.475417
21
292.634142
0
LINE
8
Layer 1
10
20.367615
20
123.735880
11
44.212277
21
123.735880
0
LINE
8
Layer 1
10
44.212277
20
123.735880
11
44.212277
21
99.891218
0
LINE
8
Layer 1
10
44.212277
20
99.891218
11
20.367615
21
99.891218
0
LINE
8
Layer 1
10
20.367615
20
99.891218
11
20.367615
21
123.735880
0
LINE
8
Layer 1
10
51.312157
20
123.735880
11
75.156819
21
123.735880
0
LINE
8
Layer 1
10
75.156819
20
123.735880
11
75.156819
21
99.891218
0
LINE
8
Layer 1
10
75.156819
20
99.891218
11
51.312157
21
99.891218
0
LINE
8
Layer 1
10
51.312157
20
99.891218
11
51.312157
21
123.735880
0
LINE
8
Layer 1
10
82.256676
20
123.735880
11
106.101338
21
123.735880
0
LINE
8
Layer 1
10
106.101338
20
123.735880
11
106.101338
21
99.891218
0
LINE
8
Layer 1
10
106.101338
20
99.891218
11
82.256676
21
99.891218
0
LINE
8
Layer 1
10
82.256676
20
99.891218
11
82.256676
21
123.735880
0
LINE
8
Layer 1
10
113.201190
20
123.735880
11
137.045852
21
123.735880
0
LINE
8
Layer 1
10
137.045852
20
123.735880
11
137.045852
21
99.891218
0
LINE
8
Layer 1
10
137.045852
20
99.891218
11
113.201190
21
99.891218
0
LINE
8
Layer 1
10
113.201190
20
99.891218
11
113.201190
21
123.735880
0
LINE
8
Layer 1
10
144.145710
20
123.735880
11
167.990372
21
123.735880
0
LINE
8
Layer 1
10
167.990372
20
123.735880
11
167.990372
21
99.891218
0
LINE
8
Layer 1
10
167.990372
20
99.891218
11
144.145710
21
99.891218
0
LINE
8
Layer 1
10
144.145710
20
99.891218
11
144.145710
21
123.735880
0
LINE
8
Layer 1
10
20.623972
20
163.914730
11
44.468632
21
163.914730
0
LINE
8
Layer 1
10
44.468632
20
163.914730
11
44.468632
21
140.070068
0
LINE
8
Layer 1
10
44.468632
20
140.070068
11
20.623972
21
140.070068
0
LINE
8
Layer 1
10
20.623972
20
140.070068
11
20.623972
21
163.914730
0
LINE
8
Layer 1
10
51.568493
20
163.914730
11
75.413153
21
163.914730
0
LINE
8
Layer 1
10
75.413153
20
163.914730
11
75.413153
21
140.070068
0
LINE
8
Layer 1
10
75.413153
20
140.070068
11
51.568493
21
140.070068
0
LINE
8
Layer 1
10
51.568493
20
140.070068
11
51.568493
21
163.914730
0
LINE
8
Layer 1
10
82.513015
20
163.914730
11
106.357675
21
163.914730
0
LINE
8
Layer 1
10
106.357675
20
163.914730
11
106.357675
21
140.070068
0
LINE
8
Layer 1
10
106.357675
20
140.070068
11
82.513015
21
140.070068
0
LINE
8
Layer 1
10
82.513015
20
140.070068
11
82.513015
21
163.914730
0
LINE
8
Layer 1
10
113.457530
20
163.914730
11
137.302190
21
163.914730
0
LINE
8
Layer 1
10
137.302190
20
163.914730
11
137.302190
21
140.070068
0
LINE
8
Layer 1
10
137.302190
20
140.070068
11
113.457530
21
140.070068
0
LINE
8
Layer 1
10
113.457530
20
140.070068
11
113.457530
21
163.914730
0
LINE
8
Layer 1
10
144.402050
20
163.914730
11
168.246710
21
163.914730
0
LINE
8
Layer 1
10
168.246710
20
163.914730
11
168.246710
21
140.070068
0
LINE
8
Layer 1
10
168.246710
20
140.070068
11
144.402050
21
140.070068
0
LINE
8
Layer 1
10
144.402050
20
140.070068
11
144.402050
21
163.914730
0
LINE
8
Layer 1
10
20.880320
20
204.093250
11
44.724980
21
204.093250
0
LINE
8
Layer 1
10
44.724980
20
204.093250
11
44.724980
21
180.248588
0
LINE
8
Layer 1
10
44.724980
20
180.248588
11
20.880320
21
180.248588
0
LINE
8
Layer 1
10
20.880320
20
180.248588
11
20.880320
21
204.093250
0
LINE
8
Layer 1
10
51.824842
20
204.093250
11
75.669502
21
204.093250
0
LINE
8
Layer 1
10
75.669502
20
204.093250
11
75.669502
21
180.248588
0
LINE
8
Layer 1
10
75.669502
20
180.248588
11
51.824842
21
180.248588
0
LINE
8
Layer 1
10
51.824842
20
180.248588
11
51.824842
21
204.093250
0
LINE
8
Layer 1
10
82.769365
20
204.093250
11
106.614025
21
204.093250
0
LINE
8
Layer 1
10
106.614025
20
204.093250
11
106.614025
21
180.248588
0
LINE
8
Layer 1
10
106.614025
20
180.248588
11
82.769365
21
180.248588
0
LINE
8
Layer 1
10
82.769365
20
180.248588
11
82.769365
21
204.093250
0
LINE
8
Layer 1
10
113.713880
20
204.093250
11
137.558540
21
204.093250
0
LINE
8
Layer 1
10
137.558540
20
204.093250
11
137.558540
21
180.248588
0
LINE
8
Layer 1
10
137.558540
20
180.248588
11
113.713880
21
180.248588
0
LINE
8
Layer 1
10
113.713880
20
180.248588
11
113.713880
21
204.093250
0
LINE
8
Layer 1
10
144.658400
20
204.093250
11
168.503060
21
204.093250
0
LINE
8
Layer 1
10
168.503060
20
204.093250
11
168.503060
21
180.248588
0
LINE
8
Layer 1
10
168.503060
20
180.248588
11
144.658400
21
180.248588
0
LINE
8
Layer 1
10
144.658400
20
180.248588
11
144.658400
21
204.093250
0
LINE
8
Layer 1
10
20.111257
20
244.272908
11
43.955917
21
244.272908
0
LINE
8
Layer 1
10
43.955917
20
244.272908
11
43.955917
21
220.428246
0
LINE
8
Layer 1
10
43.955917
20
220.428246
11
20.111257
21
220.428246
0
LINE
8
Layer 1
10
20.111257
20
220.428246
11
20.111257
21
244.272908
0
LINE
8
Layer 1
10
51.055778
20
244.272908
11
74.900438
21
244.272908
0
LINE
8
Layer 1
10
74.900438
20
244.272908
11
74.900438
21
220.428246
0
LINE
8
Layer 1
10
74.900438
20
220.428246
11
51.055778
21
220.428246
0
LINE
8
Layer 1
10
51.055778
20
220.428246
11
51.055778
21
244.272908
0
LINE
8
Layer 1
10
82.000305
20
244.272908
11
105.844965
21
244.272908
0
LINE
8
Layer 1
10
105.844965
20
244.272908
11
105.844965
21
220.428246
0
LINE
8
Layer 1
10
105.844965
20
220.428246
11
82.000305
21
220.428246
0
LINE
8
Layer 1
10
82.000305
20
220.428246
11
82.000305
21
244.272908
0
LINE
8
Layer 1
10
112.944817
20
244.272908
11
136.789477
21
244.272908
0
LINE
8
Layer 1
10
136.789477
20
244.272908
11
136.789477
21
220.428246
0
LINE
8
Layer 1
10
136.789477
20
220.428246
11
112.944817
21
220.428246
0
LINE
8
Layer 1
10
112.944817
20
220.428246
11
112.944817
21
244.272908
0
LINE
8
Layer 1
10
143.889347
20
244.272908
11
167.734007
21
244.272908
0
LINE
8
Layer 1
10
167.734007
20
244.272908
11
167.734007
21
220.428246
0
LINE
8
Layer 1
10
167.734007
20
220.428246
11
143.889347
21
220.428246
0
LINE
8
Layer 1
10
143.889347
20
220.428246
11
143.889347
21
244.272908
0
LINE
8
Layer 1
10
193.098140
20
127.839040
11
202.788115
21
127.839040
0
LINE
8
Layer 1
10
202.788115
20
127.839040
11
202.788115
21
118.149065
0
LINE
8
Layer 1
10
202.788115
20
118.149065
11
193.098140
21
118.149065
0
LINE
8
Layer 1
10
193.098140
20
118.149065
11
193.098140
21
127.839040
0
LINE
8
Layer 1
10
208.106690
20
127.839040
11
217.796665
21
127.839040
0
LINE
8
Layer 1
10
217.796665
20
127.839040
11
217.796665
21
118.149065
0
LINE
8
Layer 1
10
217.796665
20
118.149065
11
208.106690
21
118.149065
0
LINE
8
Layer 1
10
208.106690
20
118.149065
11
208.106690
21
127.839040
0
LINE
8
Layer 1
10
193.098140
20
142.717840
11
202.788115
21
142.717840
0
LINE
8
Layer 1
10
202.788115
20
142.717840
11
202.788115
21
133.027865
0
LINE
8
Layer 1
10
202.788115
20
133.027865
11
193.098140
21
133.027865
0
LINE
8
Layer 1
10
193.098140
20
133.027865
11
193.098140
21
142.717840
0
LINE
8
Layer 1
10
208.106690
20
142.717840
11
217.796665
21
142.717840
0
LINE
8
Layer 1
10
217.796665
20
142.717840
11
217.796665
21
133.027865
0
LINE
8
Layer 1
10
217.796665
20
133.027865
11
208.106690
21
133.027865
0
LINE
8
Layer 1
10
208.106690
20
133.027865
11
208.106690
21
142.717840
0
LINE
8
Layer 1
10
223.106720
20
127.858500
11
232.796695
21
127.858500
0
LINE
8
Layer 1
10
232.796695
20
127.858500
11
232.796695
21
118.168525
0
LINE
8
Layer 1
10
232.796695
20
118.168525
11
223.106720
21
118.168525
0
LINE
8
Layer 1
10
223.106720
20
118.168525
11
223.106720
21
127.858500
0
LINE
8
Layer 1
10
238.115270
20
127.858500
11
247.805245
21
127.858500
0
LINE
8
Layer 1
10
247.805245
20
127.858500
11
247.805245
21
118.168525
0
LINE
8
Layer 1
10
247.805245
20
118.168525
11
238.115270
21
118.168525
0
LINE
8
Layer 1
10
238.115270
20
118.168525
11
238.115270
21
127.858500
0
LINE
8
Layer 1
10
223.106720
20
142.737300
11
232.796695
21
142.737300
0
LINE
8
Layer 1
10
232.796695
20
142.737300
11
232.796695
21
133.047325
0
LINE
8
Layer 1
10
232.796695
20
133.047325
11
223.106720
21
133.047325
0
LINE
8
Layer 1
10
223.106720
20
133.047325
11
223.106720
21
142.737300
0
LINE
8
Layer 1
10
238.115270
20
142.737300
11
247.805245
21
142.737300
0
LINE
8
Layer 1
10
247.805245
20
142.737300
11
247.805245
21
133.047325
0
LINE
8
Layer 1
10
247.805245
20
133.047325
11
238.115270
21
133.047325
0
LINE
8
Layer 1
10
238.115270
20
133.047325
11
238.115270
21
142.737300
0
LINE
8
Layer 1
10
193.098160
20
157.717280
11
202.788135
21
157.717280
0
LINE
8
Layer 1
10
202.788135
20
157.717280
11
202.788135
21
148.027305
0
LINE
8
Layer 1
10
202.788135
20
148.027305
11
193.098160
21
148.027305
0
LINE
8
Layer 1
10
193.098160
20
148.027305
11
193.098160
21
157.717280
0
LINE
8
Layer 1
10
208.106710
20
157.717280
11
217.796685
21
157.717280
0
LINE
8
Layer 1
10
217.796685
20
157.717280
11
217.796685
21
148.027305
0
LINE
8
Layer 1
10
217.796685
20
148.027305
11
208.106710
21
148.027305
0
LINE
8
Layer 1
10
208.106710
20
148.027305
11
208.106710
21
157.717280
0
LINE
8
Layer 1
10
193.098160
20
172.596080
11
202.788135
21
172.596080
0
LINE
8
Layer 1
10
202.788135
20
172.596080
11
202.788135
21
162.906105
0
LINE
8
Layer 1
10
202.788135
20
162.906105
11
193.098160
21
162.906105
0
LINE
8
Layer 1
10
193.098160
20
162.906105
11
193.098160
21
172.596080
0
LINE
8
Layer 1
10
208.106710
20
172.596080
11
217.796685
21
172.596080
0
LINE
8
Layer 1
10
217.796685
20
172.596080
11
217.796685
21
162.906105
0
LINE
8
Layer 1
10
217.796685
20
162.906105
11
208.106710
21
162.906105
0
LINE
8
Layer 1
10
208.106710
20
162.906105
11
208.106710
21
172.596080
0
LINE
8
Layer 1
10
223.106660
20
157.717470
11
232.796635
21
157.717470
0
LINE
8
Layer 1
10
232.796635
20
157.717470
11
232.796635
21
148.027495
0
LINE
8
Layer 1
10
232.796635
20
148.027495
11
223.106660
21
148.027495
0
LINE
8
Layer 1
10
223.106660
20
148.027495
11
223.106660
21
157.717470
0
LINE
8
Layer 1
10
238.115200
20
157.717470
11
247.805175
21
157.717470
0
LINE
8
Layer 1
10
247.805175
20
157.717470
11
247.805175
21
148.027495
0
LINE
8
Layer 1
10
247.805175
20
148.027495
11
238.115200
21
148.027495
0
LINE
8
Layer 1
10
238.115200
20
148.027495
11
238.115200
21
157.717470
0
LINE
8
Layer 1
10
223.106660
20
172.596270
11
232.796635
21
172.596270
0
LINE
8
Layer 1
10
232.796635
20
172.596270
11
232.796635
21
162.906295
0
LINE
8
Layer 1
10
232.796635
20
162.906295
11
223.106660
21
162.906295
0
LINE
8
Layer 1
10
223.106660
20
162.906295
11
223.106660
21
172.596270
0
LINE
8
Layer 1
10
238.115200
20
172.596270
11
247.805175
21
172.596270
0
LINE
8
Layer 1
10
247.805175
20
172.596270
11
247.805175
21
162.906295
0
LINE
8
Layer 1
10
247.805175
20
162.906295
11
238.115200
21
162.906295
0
LINE
8
Layer 1
10
238.115200
20
162.906295
11
238.115200
21
172.596270
0
LINE
8
Layer 1
10
31.975845
20
276.902366
11
30.856582
21
276.818509
0
LINE
8
Layer 1
10
30.856582
20
276.818509
11
29.780197
21
276.573585
0
LINE
8
Layer 1
10
29.780197
20
276.573585
11
28.761610
21
276.177563
0
LINE
8
Layer 1
10
28.761610
20
276.177563
11
27.815741
21
275.640412
0
LINE
8
Layer 1
10
27.815741
20
275.640412
11
26.957509
21
274.972102
0
LINE
8
Layer 1
10
26.957509
20
274.972102
11
26.201836
21
274.182601
0
LINE
8
Layer 1
10
26.201836
20
274.182601
11
25.563641
21
273.281879
0
LINE
8
Layer 1
10
25.563641
20
273.281879
11
25.057844
21
272.279906
0
LINE
8
Layer 1
10
25.057844
20
272.279906
11
24.706995
21
271.213751
0
LINE
8
Layer 1
10
24.706995
20
271.213751
11
24.521360
21
270.125573
0
LINE
8
Layer 1
10
24.521360
20
270.125573
11
24.497440
21
269.032970
0
LINE
8
Layer 1
10
24.497440
20
269.032970
11
24.631735
21
267.953542
0
LINE
8
Layer 1
10
24.631735
20
267.953542
11
24.920742
21
266.904888
0
LINE
8
Layer 1
10
24.920742
20
266.904888
11
25.360962
21
265.904608
0
LINE
8
Layer 1
10
25.360962
20
265.904608
11
25.948894
21
264.970302
0
LINE
8
Layer 1
10
25.948894
20
264.970302
11
26.681037
21
264.119568
0
LINE
8
Layer 1
10
26.681037
20
264.119568
11
27.531771
21
263.387425
0
LINE
8
Layer 1
10
27.531771
20
263.387425
11
28.466077
21
262.799493
0
LINE
8
Layer 1
10
28.466077
20
262.799493
11
29.466357
21
262.359273
0
LINE
8
Layer 1
10
29.466357
20
262.359273
11
30.515011
21
262.070266
0
LINE
8
Layer 1
10
30.515011
20
262.070266
11
31.594439
21
261.935971
0
LINE
8
Layer 1
10
31.594439
20
261.935971
11
32.687042
21
261.959891
0
LINE
8
Layer 1
10
32.687042
20
261.959891
11
33.775220
21
262.145526
0
LINE
8
Layer 1
10
33.775220
20
262.145526
11
34.841375
21
262.496375
0
LINE
8
Layer 1
10
34.841375
20
262.496375
11
35.843348
21
263.002172
0
LINE
8
Layer 1
10
35.843348
20
263.002172
11
36.744070
21
263.640367
0
LINE
8
Layer 1
10
36.744070
20
263.640367
11
37.533571
21
264.396040
0
LINE
8
Layer 1
10
37.533571
20
264.396040
11
38.201881
21
265.254272
0
LINE
8
Layer 1
10
38.201881
20
265.254272
11
38.739032
21
266.200141
0
LINE
8
Layer 1
10
38.739032
20
266.200141
11
39.135054
21
267.218728
0
LINE
8
Layer 1
10
39.135054
20
267.218728
11
39.379978
21
268.295113
0
LINE
8
Layer 1
10
39.379978
20
268.295113
11
39.463835
21
269.414376
0
LINE
8
Layer 1
10
39.463835
20
269.414376
11
39.311706
21
270.923467
0
LINE
8
Layer 1
10
39.311706
20
270.923467
11
38.875392
21
272.329040
0
LINE
8
Layer 1
10
38.875392
20
272.329040
11
38.185004
21
273.600982
0
LINE
8
Layer 1
10
38.185004
20
273.600982
11
37.270653
21
274.709184
0
LINE
8
Layer 1
10
37.270653
20
274.709184
11
36.162451
21
275.623535
0
LINE
8
Layer 1
10
36.162451
20
275.623535
11
34.890509
21
276.313923
0
LINE
8
Layer 1
10
34.890509
20
276.313923
11
33.484936
21
276.750237
0
LINE
8
Layer 1
10
33.484936
20
276.750237
11
31.975845
21
276.902366
0
LINE
8
Layer 1
10
31.975845
20
276.902366
11
31.975845
21
276.902366
0
LINE
8
Layer 1
10
67.073349
20
276.374317
11
65.954086
21
276.290460
0
LINE
8
Layer 1
10
65.954086
20
276.290460
11
64.877701
21
276.045536
0
LINE
8
Layer 1
10
64.877701
20
276.045536
11
63.859114
21
275.649514
0
LINE
8
Layer 1
10
63.859114
20
275.649514
11
62.913245
21
275.112363
0
LINE
8
Layer 1
10
62.913245
20
275.112363
11
62.055013
21
274.444053
0
LINE
8
Layer 1
10
62.055013
20
274.444053
11
61.299340
21
273.654552
0
LINE
8
Layer 1
10
61.299340
20
273.654552
11
60.661145
21
272.753830
0
LINE
8
Layer 1
10
60.661145
20
272.753830
11
60.155348
21
271.751857
0
LINE
8
Layer 1
10
60.155348
20
271.751857
11
59.804499
21
270.685702
0
LINE
8
Layer 1
10
59.804499
20
270.685702
11
59.618864
21
269.597524
0
LINE
8
Layer 1
10
59.618864
20
269.597524
11
59.594944
21
268.504921
0
LINE
8
Layer 1
10
59.594944
20
268.504921
11
59.729239
21
267.425493
0
LINE
8
Layer 1
10
59.729239
20
267.425493
11
60.018246
21
266.376839
0
LINE
8
Layer 1
10
60.018246
20
266.376839
11
60.458466
21
265.376559
0
LINE
8
Layer 1
10
60.458466
20
265.376559
11
61.046398
21
264.442253
0
LINE
8
Layer 1
10
61.046398
20
264.442253
11
61.778541
21
263.591519
0
LINE
8
Layer 1
10
61.778541
20
263.591519
11
62.629275
21
262.859376
0
LINE
8
Layer 1
10
62.629275
20
262.859376
11
63.563581
21
262.271444
0
LINE
8
Layer 1
10
63.563581
20
262.271444
11
64.563861
21
261.831224
0
LINE
8
Layer 1
10
64.563861
20
261.831224
11
65.612515
21
261.542217
0
LINE
8
Layer 1
10
65.612515
20
261.542217
11
66.691943
21
261.407922
0
LINE
8
Layer 1
10
66.691943
20
261.407922
11
67.784546
21
261.431842
0
LINE
8
Layer 1
10
67.784546
20
261.431842
11
68.872724
21
261.617477
0
LINE
8
Layer 1
10
68.872724
20
261.617477
11
69.938879
21
261.968326
0
LINE
8
Layer 1
10
69.938879
20
261.968326
11
70.940852
21
262.474123
0
LINE
8
Layer 1
10
70.940852
20
262.474123
11
71.841574
21
263.112318
0
LINE
8
Layer 1
10
71.841574
20
263.112318
11
72.631075
21
263.867991
0
LINE
8
Layer 1
10
72.631075
20
263.867991
11
73.299385
21
264.726223
0
LINE
8
Layer 1
10
73.299385
20
264.726223
11
73.836536
21
265.672092
0
LINE
8
Layer 1
10
73.836536
20
265.672092
11
74.232558
21
266.690679
0
LINE
8
Layer 1
10
74.232558
20
266.690679
11
74.477482
21
267.767064
0
LINE
8
Layer 1
10
74.477482
20
267.767064
11
74.561339
21
268.886327
0
LINE
8
Layer 1
10
74.561339
20
268.886327
11
74.416130
21
270.353983
0
LINE
8
Layer 1
10
74.416130
20
270.353983
11
73.991350
21
271.751857
0
LINE
8
Layer 1
10
73.991350
20
271.751857
11
73.303269
21
273.040668
0
LINE
8
Layer 1
10
73.303269
20
273.040668
11
72.368157
21
274.181135
0
LINE
8
Layer 1
10
72.368157
20
274.181135
11
71.227690
21
275.116247
0
LINE
8
Layer 1
10
71.227690
20
275.116247
11
69.938879
21
275.804328
0
LINE
8
Layer 1
10
69.938879
20
275.804328
11
68.541005
21
276.229108
0
LINE
8
Layer 1
10
68.541005
20
276.229108
11
67.073349
21
276.374317
0
LINE
8
Layer 1
10
67.073349
20
276.374317
11
67.073349
21
276.374317
0
LINE
8
Layer 1
10
102.170860
20
276.902366
11
101.051597
21
276.818509
0
LINE
8
Layer 1
10
101.051597
20
276.818509
11
99.975212
21
276.573585
0
LINE
8
Layer 1
10
99.975212
20
276.573585
11
98.956625
21
276.177563
0
LINE
8
Layer 1
10
98.956625
20
276.177563
11
98.010756
21
275.640412
0
LINE
8
Layer 1
10
98.010756
20
275.640412
11
97.152524
21
274.972102
0
LINE
8
Layer 1
10
97.152524
20
274.972102
11
96.396851
21
274.182601
0
LINE
8
Layer 1
10
96.396851
20
274.182601
11
95.758656
21
273.281879
0
LINE
8
Layer 1
10
95.758656
20
273.281879
11
95.252859
21
272.279906
0
LINE
8
Layer 1
10
95.252859
20
272.279906
11
94.902010
21
271.213751
0
LINE
8
Layer 1
10
94.902010
20
271.213751
11
94.716375
21
270.125573
0
LINE
8
Layer 1
10
94.716375
20
270.125573
11
94.692455
21
269.032970
0
LINE
8
Layer 1
10
94.692455
20
269.032970
11
94.826750
21
267.953542
0
LINE
8
Layer 1
10
94.826750
20
267.953542
11
95.115757
21
266.904888
0
LINE
8
Layer 1
10
95.115757
20
266.904888
11
95.555977
21
265.904608
0
LINE
8
Layer 1
10
95.555977
20
265.904608
11
96.143909
21
264.970302
0
LINE
8
Layer 1
10
96.143909
20
264.970302
11
96.876052
21
264.119568
0
LINE
8
Layer 1
10
96.876052
20
264.119568
11
97.726786
21
263.387425
0
LINE
8
Layer 1
10
97.726786
20
263.387425
11
98.661092
21
262.799493
0
LINE
8
Layer 1
10
98.661092
20
262.799493
11
99.661372
21
262.359273
0
LINE
8
Layer 1
10
99.661372
20
262.359273
11
100.710026
21
262.070266
0
LINE
8
Layer 1
10
100.710026
20
262.070266
11
101.789454
21
261.935971
0
LINE
8
Layer 1
10
101.789454
20
261.935971
11
102.882057
21
261.959891
0
LINE
8
Layer 1
10
102.882057
20
261.959891
11
103.970235
21
262.145526
0
LINE
8
Layer 1
10
103.970235
20
262.145526
11
105.036390
21
262.496375
0
LINE
8
Layer 1
10
105.036390
20
262.496375
11
106.038363
21
263.002172
0
LINE
8
Layer 1
10
106.038363
20
263.002172
11
106.939085
21
263.640367
0
LINE
8
Layer 1
10
106.939085
20
263.640367
11
107.728586
21
264.396040
0
LINE
8
Layer 1
10
107.728586
20
264.396040
11
108.396896
21
265.254272
0
LINE
8
Layer 1
10
108.396896
20
265.254272
11
108.934047
21
266.200141
0
LINE
8
Layer 1
10
108.934047
20
266.200141
11
109.330069
21
267.218728
0
LINE
8
Layer 1
10
109.330069
20
267.218728
11
109.574993
21
268.295113
0
LINE
8
Layer 1
10
109.574993
20
268.295113
11
109.658850
21
269.414376
0
LINE
8
Layer 1
10
109.658850
20
269.414376
11
109.513641
21
270.882032
0
LINE
8
Layer 1
10
109.513641
20
270.882032
11
109.088861
21
272.279906
0
LINE
8
Layer 1
10
109.088861
20
272.279906
11
108.400780
21
273.568717
0
LINE
8
Layer 1
10
108.400780
20
273.568717
11
107.465668
21
274.709184
0
LINE
8
Layer 1
10
107.465668
20
274.709184
11
106.325201
21
275.644296
0
LINE
8
Layer 1
10
106.325201
20
275.644296
11
105.036390
21
276.332377
0
LINE
8
Layer 1
10
105.036390
20
276.332377
11
103.638516
21
276.757157
0
LINE
8
Layer 1
10
103.638516
20
276.757157
11
102.170860
21
276.902366
0
LINE
8
Layer 1
10
102.170860
20
276.902366
11
102.170860
21
276.902366
0
LINE
8
Layer 1
10
137.268370
20
276.374317
11
136.149107
21
276.290460
0
LINE
8
Layer 1
10
136.149107
20
276.290460
11
135.072722
21
276.045536
0
LINE
8
Layer 1
10
135.072722
20
276.045536
11
134.054135
21
275.649514
0
LINE
8
Layer 1
10
134.054135
20
275.649514
11
133.108266
21
275.112363
0
LINE
8
Layer 1
10
133.108266
20
275.112363
11
132.250034
21
274.444053
0
LINE
8
Layer 1
10
132.250034
20
274.444053
11
131.494361
21
273.654552
0
LINE
8
Layer 1
10
131.494361
20
273.654552
11
130.856166
21
272.753830
0
LINE
8
Layer 1
10
130.856166
20
272.753830
11
130.350369
21
271.751857
0
LINE
8
Layer 1
10
130.350369
20
271.751857
11
129.999520
21
270.685702
0
LINE
8
Layer 1
10
129.999520
20
270.685702
11
129.813885
21
269.597524
0
LINE
8
Layer 1
10
129.813885
20
269.597524
11
129.789965
21
268.504921
0
LINE
8
Layer 1
10
129.789965
20
268.504921
11
129.924260
21
267.425493
0
LINE
8
Layer 1
10
129.924260
20
267.425493
11
130.213267
21
266.376839
0
LINE
8
Layer 1
10
130.213267
20
266.376839
11
130.653487
21
265.376559
0
LINE
8
Layer 1
10
130.653487
20
265.376559
11
131.241419
21
264.442253
0
LINE
8
Layer 1
10
131.241419
20
264.442253
11
131.973562
21
263.591519
0
LINE
8
Layer 1
10
131.973562
20
263.591519
11
132.824296
21
262.859376
0
LINE
8
Layer 1
10
132.824296
20
262.859376
11
133.758602
21
262.271444
0
LINE
8
Layer 1
10
133.758602
20
262.271444
11
134.758882
21
261.831224
0
LINE
8
Layer 1
10
134.758882
20
261.831224
11
135.807536
21
261.542217
0
LINE
8
Layer 1
10
135.807536
20
261.542217
11
136.886964
21
261.407922
0
LINE
8
Layer 1
10
136.886964
20
261.407922
11
137.979567
21
261.431842
0
LINE
8
Layer 1
10
137.979567
20
261.431842
11
139.067745
21
261.617477
0
LINE
8
Layer 1
10
139.067745
20
261.617477
11
140.133900
21
261.968326
0
LINE
8
Layer 1
10
140.133900
20
261.968326
11
141.135873
21
262.474123
0
LINE
8
Layer 1
10
141.135873
20
262.474123
11
142.036595
21
263.112318
0
LINE
8
Layer 1
10
142.036595
20
263.112318
11
142.826096
21
263.867991
0
LINE
8
Layer 1
10
142.826096
20
263.867991
11
143.494406
21
264.726223
0
LINE
8
Layer 1
10
143.494406
20
264.726223
11
144.031557
21
265.672092
0
LINE
8
Layer 1
10
144.031557
20
265.672092
11
144.427579
21
266.690679
0
LINE
8
Layer 1
10
144.427579
20
266.690679
11
144.672503
21
267.767064
0
LINE
8
Layer 1
10
144.672503
20
267.767064
11
144.756360
21
268.886327
0
LINE
8
Layer 1
10
144.756360
20
268.886327
11
144.611151
21
270.353983
0
LINE
8
Layer 1
10
144.611151
20
270.353983
11
144.186371
21
271.751857
0
LINE
8
Layer 1
10
144.186371
20
271.751857
11
143.498290
21
273.040668
0
LINE
8
Layer 1
10
143.498290
20
273.040668
11
142.563178
21
274.181135
0
LINE
8
Layer 1
10
142.563178
20
274.181135
11
141.422711
21
275.116247
0
LINE
8
Layer 1
10
141.422711
20
275.116247
11
140.133900
21
275.804328
0
LINE
8
Layer 1
10
140.133900
20
275.804328
11
138.736026
21
276.229108
0
LINE
8
Layer 1
10
138.736026
20
276.229108
11
137.268370
21
276.374317
0
LINE
8
Layer 1
10
137.268370
20
276.374317
11
137.268370
21
276.374317
0
LINE
8
Layer 1
10
172.365880
20
276.374317
11
171.246617
21
276.290460
0
LINE
8
Layer 1
10
171.246617
20
276.290460
11
170.170232
21
276.045536
0
LINE
8
Layer 1
10
170.170232
20
276.045536
11
169.151645
21
275.649514
0
LINE
8
Layer 1
10
169.151645
20
275.649514
11
168.205776
21
275.112363
0
LINE
8
Layer 1
10
168.205776
20
275.112363
11
167.347544
21
274.444053
0
LINE
8
Layer 1
10
167.347544
20
274.444053
11
166.591871
21
273.654552
0
LINE
8
Layer 1
10
166.591871
20
273.654552
11
165.953676
21
272.753830
0
LINE
8
Layer 1
10
165.953676
20
272.753830
11
165.447879
21
271.751857
0
LINE
8
Layer 1
10
165.447879
20
271.751857
11
165.097030
21
270.685702
0
LINE
8
Layer 1
10
165.097030
20
270.685702
11
164.911395
21
269.597524
0
LINE
8
Layer 1
10
164.911395
20
269.597524
11
164.887475
21
268.504921
0
LINE
8
Layer 1
10
164.887475
20
268.504921
11
165.021770
21
267.425493
0
LINE
8
Layer 1
10
165.021770
20
267.425493
11
165.310777
21
266.376839
0
LINE
8
Layer 1
10
165.310777
20
266.376839
11
165.750997
21
265.376559
0
LINE
8
Layer 1
10
165.750997
20
265.376559
11
166.338929
21
264.442253
0
LINE
8
Layer 1
10
166.338929
20
264.442253
11
167.071072
21
263.591519
0
LINE
8
Layer 1
10
167.071072
20
263.591519
11
167.921806
21
262.859376
0
LINE
8
Layer 1
10
167.921806
20
262.859376
11
168.856112
21
262.271444
0
LINE
8
Layer 1
10
168.856112
20
262.271444
11
169.856392
21
261.831224
0
LINE
8
Layer 1
10
169.856392
20
261.831224
11
170.905046
21
261.542217
0
LINE
8
Layer 1
10
170.905046
20
261.542217
11
171.984474
21
261.407922
0
LINE
8
Layer 1
10
171.984474
20
261.407922
11
173.077077
21
261.431842
0
LINE
8
Layer 1
10
173.077077
20
261.431842
11
174.165255
21
261.617477
0
LINE
8
Layer 1
10
174.165255
20
261.617477
11
175.231410
21
261.968326
0
LINE
8
Layer 1
10
175.231410
20
261.968326
11
176.233383
21
262.474123
0
LINE
8
Layer 1
10
176.233383
20
262.474123
11
177.134105
21
263.112318
0
LINE
8
Layer 1
10
177.134105
20
263.112318
11
177.923606
21
263.867991
0
LINE
8
Layer 1
10
177.923606
20
263.867991
11
178.591916
21
264.726223
0
LINE
8
Layer 1
10
178.591916
20
264.726223
11
179.129067
21
265.672092
0
LINE
8
Layer 1
10
179.129067
20
265.672092
11
179.525089
21
266.690679
0
LINE
8
Layer 1
10
179.525089
20
266.690679
11
179.770013
21
267.767064
0
LINE
8
Layer 1
10
179.770013
20
267.767064
11
179.853870
21
268.886327
0
LINE
8
Layer 1
10
179.853870
20
268.886327
11
179.708661
21
270.353983
0
LINE
8
Layer 1
10
179.708661
20
270.353983
11
179.283881
21
271.751857
0
LINE
8
Layer 1
10
179.283881
20
271.751857
11
178.595800
21
273.040668
0
LINE
8
Layer 1
10
178.595800
20
273.040668
11
177.660688
21
274.181135
0
LINE
8
Layer 1
10
177.660688
20
274.181135
11
176.520221
21
275.116247
0
LINE
8
Layer 1
10
176.520221
20
275.116247
11
175.231410
21
275.804328
0
LINE
8
Layer 1
10
175.231410
20
275.804328
11
173.833536
21
276.229108
0
LINE
8
Layer 1
10
173.833536
20
276.229108
11
172.365880
21
276.374317
0
LINE
8
Layer 1
10
172.365880
20
276.374317
11
172.365880
21
276.374317
0
LINE
8
Layer 1
10
207.463390
20
276.902366
11
206.344127
21
276.818509
0
LINE
8
Layer 1
10
206.344127
20
276.818509
11
205.267742
21
276.573585
0
LINE
8
Layer 1
10
205.267742
20
276.573585
11
204.249155
21
276.177563
0
LINE
8
Layer 1
10
204.249155
20
276.177563
11
203.303286
21
275.640412
0
LINE
8
Layer 1
10
203.303286
20
275.640412
11
202.445054
21
274.972102
0
LINE
8
Layer 1
10
202.445054
20
274.972102
11
201.689381
21
274.182601
0
LINE
8
Layer 1
10
201.689381
20
274.182601
11
201.051186
21
273.281879
0
LINE
8
Layer 1
10
201.051186
20
273.281879
11
200.545389
21
272.279906
0
LINE
8
Layer 1
10
200.545389
20
272.279906
11
200.194540
21
271.213751
0
LINE
8
Layer 1
10
200.194540
20
271.213751
11
200.008905
21
270.125573
0
LINE
8
Layer 1
10
200.008905
20
270.125573
11
199.984985
21
269.032970
0
LINE
8
Layer 1
10
199.984985
20
269.032970
11
200.119280
21
267.953542
0
LINE
8
Layer 1
10
200.119280
20
267.953542
11
200.408287
21
266.904888
0
LINE
8
Layer 1
10
200.408287
20
266.904888
11
200.848507
21
265.904608
0
LINE
8
Layer 1
10
200.848507
20
265.904608
11
201.436439
21
264.970302
0
LINE
8
Layer 1
10
201.436439
20
264.970302
11
202.168582
21
264.119568
0
LINE
8
Layer 1
10
202.168582
20
264.119568
11
203.019316
21
263.387425
0
LINE
8
Layer 1
10
203.019316
20
263.387425
11
203.953622
21
262.799493
0
LINE
8
Layer 1
10
203.953622
20
262.799493
11
204.953902
21
262.359273
0
LINE
8
Layer 1
10
204.953902
20
262.359273
11
206.002556
21
262.070266
0
LINE
8
Layer 1
10
206.002556
20
262.070266
11
207.081984
21
261.935971
0
LINE
8
Layer 1
10
207.081984
20
261.935971
11
208.174587
21
261.959891
0
LINE
8
Layer 1
10
208.174587
20
261.959891
11
209.262765
21
262.145526
0
LINE
8
Layer 1
10
209.262765
20
262.145526
11
210.328920
21
262.496375
0
LINE
8
Layer 1
10
210.328920
20
262.496375
11
211.330893
21
263.002172
0
LINE
8
Layer 1
10
211.330893
20
263.002172
11
212.231615
21
263.640367
0
LINE
8
Layer 1
10
212.231615
20
263.640367
11
213.021116
21
264.396040
0
LINE
8
Layer 1
10
213.021116
20
264.396040
11
213.689426
21
265.254272
0
LINE
8
Layer 1
10
213.689426
20
265.254272
11
214.226577
21
266.200141
0
LINE
8
Layer 1
10
214.226577
20
266.200141
11
214.622599
21
267.218728
0
LINE
8
Layer 1
10
214.622599
20
267.218728
11
214.867523
21
268.295113
0
LINE
8
Layer 1
10
214.867523
20
268.295113
11
214.951380
21
269.414376
0
LINE
8
Layer 1
10
214.951380
20
269.414376
11
214.806171
21
270.882032
0
LINE
8
Layer 1
10
214.806171
20
270.882032
11
214.381391
21
272.279906
0
LINE
8
Layer 1
10
214.381391
20
272.279906
11
213.693310
21
273.568717
0
LINE
8
Layer 1
10
213.693310
20
273.568717
11
212.758198
21
274.709184
0
LINE
8
Layer 1
10
212.758198
20
274.709184
11
211.617731
21
275.644296
0
LINE
8
Layer 1
10
211.617731
20
275.644296
11
210.328920
21
276.332377
0
LINE
8
Layer 1
10
210.328920
20
276.332377
11
208.931046
21
276.757157
0
LINE
8
Layer 1
10
208.931046
20
276.757157
11
207.463390
21
276.902366
0
LINE
8
Layer 1
10
207.463390
20
276.902366
11
207.463390
21
276.902366
0
LINE
8
Layer 1
10
242.560900
20
277.166389
11
241.441637
21
277.082532
0
LINE
8
Layer 1
10
241.441637
20
277.082532
11
240.365252
21
276.837608
0
LINE
8
Layer 1
10
240.365252
20
276.837608
11
239.346665
21
276.441586
0
LINE
8
Layer 1
10
239.346665
20
276.441586
11
238.400796
21
275.904435
0
LINE
8
Layer 1
10
238.400796
20
275.904435
11
237.542564
21
275.236125
0
LINE
8
Layer 1
10
237.542564
20
275.236125
11
236.786891
21
274.446624
0
LINE
8
Layer 1
10
236.786891
20
274.446624
11
236.148696
21
273.545902
0
LINE
8
Layer 1
10
236.148696
20
273.545902
11
235.642899
21
272.543929
0
LINE
8
Layer 1
10
235.642899
20
272.543929
11
235.292050
21
271.477774
0
LINE
8
Layer 1
10
235.292050
20
271.477774
11
235.106415
21
270.389596
0
LINE
8
Layer 1
10
235.106415
20
270.389596
11
235.082495
21
269.296993
0
LINE
8
Layer 1
10
235.082495
20
269.296993
11
235.216790
21
268.217565
0
LINE
8
Layer 1
10
235.216790
20
268.217565
11
235.505797
21
267.168911
0
LINE
8
Layer 1
10
235.505797
20
267.168911
11
235.946017
21
266.168631
0
LINE
8
Layer 1
10
235.946017
20
266.168631
11
236.533949
21
265.234325
0
LINE
8
Layer 1
10
236.533949
20
265.234325
11
237.266092
21
264.383591
0
LINE
8
Layer 1
10
237.266092
20
264.383591
11
238.116826
21
263.651448
0
LINE
8
Layer 1
10
238.116826
20
263.651448
11
239.051132
21
263.063516
0
LINE
8
Layer 1
10
239.051132
20
263.063516
11
240.051412
21
262.623296
0
LINE
8
Layer 1
10
240.051412
20
262.623296
11
241.100066
21
262.334289
0
LINE
8
Layer 1
10
241.100066
20
262.334289
11
242.179494
21
262.199994
0
LINE
8
Layer 1
10
242.179494
20
262.199994
11
243.272097
21
262.223914
0
LINE
8
Layer 1
10
243.272097
20
262.223914
11
244.360275
21
262.409549
0
LINE
8
Layer 1
10
244.360275
20
262.409549
11
245.426430
21
262.760398
0
LINE
8
Layer 1
10
245.426430
20
262.760398
11
246.428403
21
263.266195
0
LINE
8
Layer 1
10
246.428403
20
263.266195
11
247.329125
21
263.904390
0
LINE
8
Layer 1
10
247.329125
20
263.904390
11
248.118626
21
264.660063
0
LINE
8
Layer 1
10
248.118626
20
264.660063
11
248.786936
21
265.518295
0
LINE
8
Layer 1
10
248.786936
20
265.518295
11
249.324087
21
266.464164
0
LINE
8
Layer 1
10
249.324087
20
266.464164
11
249.720109
21
267.482751
0
LINE
8
Layer 1
10
249.720109
20
267.482751
11
249.965033
21
268.559136
0
LINE
8
Layer 1
10
249.965033
20
268.559136
11
250.048890
21
269.678399
0
LINE
8
Layer 1
10
250.048890
20
269.678399
11
249.903681
21
271.146055
0
LINE
8
Layer 1
10
249.903681
20
271.146055
11
249.478901
21
272.543929
0
LINE
8
Layer 1
10
249.478901
20
272.543929
11
248.790820
21
273.832740
0
LINE
8
Layer 1
10
248.790820
20
273.832740
11
247.855708
21
274.973207
0
LINE
8
Layer 1
10
247.855708
20
274.973207
11
246.715241
21
275.908319
0
LINE
8
Layer 1
10
246.715241
20
275.908319
11
245.426430
21
276.596400
0
LINE
8
Layer 1
10
245.426430
20
276.596400
11
244.028556
21
277.021180
0
LINE
8
Layer 1
10
244.028556
20
277.021180
11
242.560900
21
277.166389
0
LINE
8
Layer 1
10
242.560900
20
277.166389
11
242.560900
21
277.166389
0
LINE
8
Layer 1
10
198.459980
20
223.407307
11
242.443382
21
223.407307
0
LINE
8
Layer 1
10
242.443382
20
223.407307
11
242.443382
21
186.332295
0
LINE
8
Layer 1
10
242.443382
20
186.332295
11
198.459980
21
186.332295
0
LINE
8
Layer 1
10
198.459980
20
186.332295
11
198.459980
21
223.407307
0
LINE
8
Layer 1
10
203.972410
20
242.444517
11
203.168835
21
242.324188
0
LINE
8
Layer 1
10
203.168835
20
242.324188
11
202.449872
21
241.982661
0
LINE
8
Layer 1
10
202.449872
20
241.982661
11
201.859207
21
241.449123
0
LINE
8
Layer 1
10
201.859207
20
241.449123
11
201.440523
21
240.752764
0
LINE
8
Layer 1
10
201.440523
20
240.752764
11
201.244177
21
239.964310
0
LINE
8
Layer 1
10
201.244177
20
239.964310
11
201.284573
21
239.169378
0
LINE
8
Layer 1
10
201.284573
20
239.169378
11
201.551459
21
238.419498
0
LINE
8
Layer 1
10
201.551459
20
238.419498
11
202.034587
21
237.766199
0
LINE
8
Layer 1
10
202.034587
20
237.766199
11
202.687886
21
237.283071
0
LINE
8
Layer 1
10
202.687886
20
237.283071
11
203.437766
21
237.016184
0
LINE
8
Layer 1
10
203.437766
20
237.016184
11
204.232698
21
236.975789
0
LINE
8
Layer 1
10
204.232698
20
236.975789
11
205.021152
21
237.172134
0
LINE
8
Layer 1
10
205.021152
20
237.172134
11
205.717511
21
237.590819
0
LINE
8
Layer 1
10
205.717511
20
237.590819
11
206.251048
21
238.181484
0
LINE
8
Layer 1
10
206.251048
20
238.181484
11
206.592576
21
238.900447
0
LINE
8
Layer 1
10
206.592576
20
238.900447
11
206.712905
21
239.704022
0
LINE
8
Layer 1
10
206.712905
20
239.704022
11
206.504297
21
240.752764
0
LINE
8
Layer 1
10
206.504297
20
240.752764
11
205.910233
21
241.641845
0
LINE
8
Layer 1
10
205.910233
20
241.641845
11
205.021152
21
242.235910
0
LINE
8
Layer 1
10
205.021152
20
242.235910
11
203.972410
21
242.444517
0
LINE
8
Layer 1
10
203.972410
20
242.444517
11
203.972410
21
242.444517
0
LINE
8
Layer 1
10
220.451680
20
242.444517
11
219.648105
21
242.324188
0
LINE
8
Layer 1
10
219.648105
20
242.324188
11
218.929142
21
241.982661
0
LINE
8
Layer 1
10
218.929142
20
241.982661
11
218.338477
21
241.449123
0
LINE
8
Layer 1
10
218.338477
20
241.449123
11
217.919793
21
240.752764
0
LINE
8
Layer 1
10
217.919793
20
240.752764
11
217.723447
21
239.964310
0
LINE
8
Layer 1
10
217.723447
20
239.964310
11
217.763843
21
239.169378
0
LINE
8
Layer 1
10
217.763843
20
239.169378
11
218.030729
21
238.419498
0
LINE
8
Layer 1
10
218.030729
20
238.419498
11
218.513857
21
237.766199
0
LINE
8
Layer 1
10
218.513857
20
237.766199
11
219.167156
21
237.283071
0
LINE
8
Layer 1
10
219.167156
20
237.283071
11
219.917036
21
237.016184
0
LINE
8
Layer 1
10
219.917036
20
237.016184
11
220.711968
21
236.975789
0
LINE
8
Layer 1
10
220.711968
20
236.975789
11
221.500422
21
237.172134
0
LINE
8
Layer 1
10
221.500422
20
237.172134
11
222.196781
21
237.590819
0
LINE
8
Layer 1
10
222.196781
20
237.590819
11
222.730318
21
238.181484
0
LINE
8
Layer 1
10
222.730318
20
238.181484
11
223.071846
21
238.900447
0
LINE
8
Layer 1
10
223.071846
20
238.900447
11
223.192175
21
239.704022
0
LINE
8
Layer 1
10
223.192175
20
239.704022
11
222.983567
21
240.752764
0
LINE
8
Layer 1
10
222.983567
20
240.752764
11
222.389503
21
241.641845
0
LINE
8
Layer 1
10
222.389503
20
241.641845
11
221.500422
21
242.235910
0
LINE
8
Layer 1
10
221.500422
20
242.235910
11
220.451680
21
242.444517
0
LINE
8
Layer 1
10
220.451680
20
242.444517
11
220.451680
21
242.444517
0
LINE
8
Layer 1
10
236.930950
20
242.444517
11
236.127375
21
242.324188
0
LINE
8
Layer 1
10
236.127375
20
242.324188
11
235.408412
21
241.982661
0
LINE
8
Layer 1
10
235.408412
20
241.982661
11
234.817747
21
241.449123
0
LINE
8
Layer 1
10
234.817747
20
241.449123
11
234.399063
21
240.752764
0
LINE
8
Layer 1
10
234.399063
20
240.752764
11
234.202717
21
239.964310
0
LINE
8
Layer 1
10
234.202717
20
239.964310
11
234.243113
21
239.169378
0
LINE
8
Layer 1
10
234.243113
20
239.169378
11
234.509999
21
238.419498
0
LINE
8
Layer 1
10
234.509999
20
238.419498
11
234.993127
21
237.766199
0
LINE
8
Layer 1
10
234.993127
20
237.766199
11
235.646426
21
237.283071
0
LINE
8
Layer 1
10
235.646426
20
237.283071
11
236.396306
21
237.016184
0
LINE
8
Layer 1
10
236.396306
20
237.016184
11
237.191238
21
236.975789
0
LINE
8
Layer 1
10
237.191238
20
236.975789
11
237.979692
21
237.172134
0
LINE
8
Layer 1
10
237.979692
20
237.172134
11
238.676051
21
237.590819
0
LINE
8
Layer 1
10
238.676051
20
237.590819
11
239.209588
21
238.181484
0
LINE
8
Layer 1
10
239.209588
20
238.181484
11
239.551116
21
238.900447
0
LINE
8
Layer 1
10
239.551116
20
238.900447
11
239.671445
21
239.704022
0
LINE
8
Layer 1
10
239.671445
20
239.704022
11
239.462837
21
240.752764
0
LINE
8
Layer 1
10
239.462837
20
240.752764
11
238.868773
21
241.641845
0
LINE
8
Layer 1
10
238.868773
20
241.641845
11
237.979692
21
242.235910
0
LINE
8
Layer 1
10
237.979692
20
242.235910
11
236.930950
21
242.444517
0
LINE
8
Layer 1
10
236.930950
20
242.444517
11
236.930950
21
242.444517
0
LINE
8
Layer 1
10
29.900528
20
255.170049
11
27.830704
21
255.170049
0
LINE
8
Layer 1
10
27.830704
20
255.170049
11
27.830704
21
258.441777
0
LINE
8
Layer 1
10
27.830704
20
258.441777
11
28.265762
21
258.441777
0
LINE
8
Layer 1
10
28.265762
20
258.441777
11
28.265762
21
255.556767
0
LINE
8
Layer 1
10
28.265762
20
255.556767
11
29.900528
21
255.556767
0
LINE
8
Layer 1
10
29.900528
20
255.556767
11
29.900528
21
255.170049
0
LINE
8
Layer 1
10
32.394424
20
256.396123
11
32.317520
21
255.859440
0
LINE
8
Layer 1
10
32.317520
20
255.859440
11
32.086807
21
255.449101
0
LINE
8
Layer 1
10
32.086807
20
255.449101
11
31.727005
21
255.188725
0
LINE
8
Layer 1
10
31.727005
20
255.188725
11
31.262833
21
255.101933
0
LINE
8
Layer 1
10
31.262833
20
255.101933
11
30.795365
21
255.188725
0
LINE
8
Layer 1
10
30.795365
20
255.188725
11
30.434464
21
255.449101
0
LINE
8
Layer 1
10
30.434464
20
255.449101
11
30.205399
21
255.859440
0
LINE
8
Layer 1
10
30.205399
20
255.859440
11
30.129044
21
256.396123
0
LINE
8
Layer 1
10
30.129044
20
256.396123
11
30.205399
21
256.932805
0
LINE
8
Layer 1
10
30.205399
20
256.932805
11
30.434464
21
257.343144
0
LINE
8
Layer 1
10
30.434464
20
257.343144
11
30.795365
21
257.605168
0
LINE
8
Layer 1
10
30.795365
20
257.605168
11
31.262833
21
257.692509
0
LINE
8
Layer 1
10
31.262833
20
257.692509
11
31.727005
21
257.605168
0
LINE
8
Layer 1
10
31.727005
20
257.605168
11
32.086807
21
257.343144
0
LINE
8
Layer 1
10
32.086807
20
257.343144
11
32.317520
21
256.932805
0
LINE
8
Layer 1
10
32.317520
20
256.932805
11
32.394424
21
256.396123
0
LINE
8
Layer 1
10
32.394424
20
256.396123
11
32.394424
21
256.396123
0
LINE
8
Layer 1
10
31.968155
20
256.396123
11
31.781387
21
257.103642
0
LINE
8
Layer 1
10
31.781387
20
257.103642
11
31.262833
21
257.336552
0
LINE
8
Layer 1
10
31.262833
20
257.336552
11
30.739883
21
257.103642
0
LINE
8
Layer 1
10
30.739883
20
257.103642
11
30.555313
21
256.396123
0
LINE
8
Layer 1
10
30.555313
20
256.396123
11
30.742081
21
255.695195
0
LINE
8
Layer 1
10
30.742081
20
255.695195
11
31.262833
21
255.457890
0
LINE
8
Layer 1
10
31.262833
20
255.457890
11
31.779190
21
255.692998
0
LINE
8
Layer 1
10
31.779190
20
255.692998
11
31.968155
21
256.396123
0
LINE
8
Layer 1
10
31.968155
20
256.396123
11
31.968155
21
256.396123
0
LINE
8
Layer 1
10
36.120987
20
257.624394
11
35.481583
21
255.170049
0
LINE
8
Layer 1
10
35.481583
20
255.170049
11
35.099258
21
255.170049
0
LINE
8
Layer 1
10
35.099258
20
255.170049
11
34.468643
21
257.061894
0
LINE
8
Layer 1
10
34.468643
20
257.061894
11
33.842422
21
255.170049
0
LINE
8
Layer 1
10
33.842422
20
255.170049
11
33.462296
21
255.170049
0
LINE
8
Layer 1
10
33.462296
20
255.170049
11
32.816299
21
257.624394
0
LINE
8
Layer 1
10
32.816299
20
257.624394
11
33.246964
21
257.624394
0
LINE
8
Layer 1
10
33.246964
20
257.624394
11
33.697403
21
255.723759
0
LINE
8
Layer 1
10
33.697403
20
255.723759
11
34.310440
21
257.624394
0
LINE
8
Layer 1
10
34.310440
20
257.624394
11
34.651016
21
257.624394
0
LINE
8
Layer 1
10
34.651016
20
257.624394
11
35.279434
21
255.723759
0
LINE
8
Layer 1
10
35.279434
20
255.723759
11
35.705704
21
257.624394
0
LINE
8
Layer 1
10
35.705704
20
257.624394
11
36.120987
21
257.624394
0
LINE
8
Layer 1
10
66.494370
20
255.096440
11
66.059311
21
255.096440
0
LINE
8
Layer 1
10
66.059311
20
255.096440
11
66.059311
21
257.915532
0
LINE
8
Layer 1
10
66.059311
20
257.915532
11
65.149643
21
255.997319
0
LINE
8
Layer 1
10
65.149643
20
255.997319
11
64.890366
21
255.997319
0
LINE
8
Layer 1
10
64.890366
20
255.997319
11
63.987289
21
257.915532
0
LINE
8
Layer 1
10
63.987289
20
257.915532
11
63.987289
21
255.096440
0
LINE
8
Layer 1
10
63.987289
20
255.096440
11
63.580795
21
255.096440
0
LINE
8
Layer 1
10
63.580795
20
255.096440
11
63.580795
21
258.368169
0
LINE
8
Layer 1
10
63.580795
20
258.368169
11
64.174057
21
258.368169
0
LINE
8
Layer 1
10
64.174057
20
258.368169
11
65.046371
21
256.546635
0
LINE
8
Layer 1
10
65.046371
20
256.546635
11
65.890121
21
258.368169
0
LINE
8
Layer 1
10
65.890121
20
258.368169
11
66.494370
21
258.368169
0
LINE
8
Layer 1
10
66.494370
20
258.368169
11
66.494370
21
255.096440
0
LINE
8
Layer 1
10
67.784164
20
257.961674
11
67.318344
21
257.961674
0
LINE
8
Layer 1
10
67.318344
20
257.961674
11
67.318344
21
258.390141
0
LINE
8
Layer 1
10
67.318344
20
258.390141
11
67.784164
21
258.390141
0
LINE
8
Layer 1
10
67.784164
20
258.390141
11
67.784164
21
257.961674
0
LINE
8
Layer 1
10
67.757794
20
255.096440
11
67.344708
21
255.096440
0
LINE
8
Layer 1
10
67.344708
20
255.096440
11
67.344708
21
257.550786
0
LINE
8
Layer 1
10
67.344708
20
257.550786
11
67.757794
21
257.550786
0
LINE
8
Layer 1
10
67.757794
20
257.550786
11
67.757794
21
255.096440
0
LINE
8
Layer 1
10
70.565900
20
255.096440
11
70.152814
21
255.096440
0
LINE
8
Layer 1
10
70.152814
20
255.096440
11
70.152814
21
255.353520
0
LINE
8
Layer 1
10
70.152814
20
255.353520
11
69.781476
21
255.114018
0
LINE
8
Layer 1
10
69.781476
20
255.114018
11
69.361798
21
255.028328
0
LINE
8
Layer 1
10
69.361798
20
255.028328
11
68.967389
21
255.112923
0
LINE
8
Layer 1
10
68.967389
20
255.112923
11
68.663068
21
255.366707
0
LINE
8
Layer 1
10
68.663068
20
255.366707
11
68.470258
21
255.770454
0
LINE
8
Layer 1
10
68.470258
20
255.770454
11
68.405988
21
256.304939
0
LINE
8
Layer 1
10
68.405988
20
256.304939
11
68.493878
21
256.860847
0
LINE
8
Layer 1
10
68.493878
20
256.860847
11
68.735577
21
257.276131
0
LINE
8
Layer 1
10
68.735577
20
257.276131
11
69.082745
21
257.531013
0
LINE
8
Layer 1
10
69.082745
20
257.531013
11
69.495831
21
257.618903
0
LINE
8
Layer 1
10
69.495831
20
257.618903
11
69.838605
21
257.577153
0
LINE
8
Layer 1
10
69.838605
20
257.577153
11
70.152814
21
257.451909
0
LINE
8
Layer 1
10
70.152814
20
257.451909
11
70.152814
21
258.515385
0
LINE
8
Layer 1
10
70.152814
20
258.515385
11
70.565900
21
258.515385
0
LINE
8
Layer 1
10
70.565900
20
258.515385
11
70.565900
21
255.096440
0
LINE
8
Layer 1
10
70.152814
20
255.700688
11
70.152814
21
257.109135
0
LINE
8
Layer 1
10
70.152814
20
257.109135
11
69.853986
21
257.212407
0
LINE
8
Layer 1
10
69.853986
20
257.212407
11
69.566144
21
257.240967
0
LINE
8
Layer 1
10
69.566144
20
257.240967
11
69.025617
21
256.999268
0
LINE
8
Layer 1
10
69.025617
20
256.999268
11
68.832257
21
256.313721
0
LINE
8
Layer 1
10
68.832257
20
256.313721
11
68.981671
21
255.647950
0
LINE
8
Layer 1
10
68.981671
20
255.647950
11
69.460675
21
255.421631
0
LINE
8
Layer 1
10
69.460675
20
255.421631
11
69.816632
21
255.498541
0
LINE
8
Layer 1
10
69.816632
20
255.498541
11
70.152814
21
255.700689
0
LINE
8
Layer 1
10
70.152814
20
255.700689
11
70.152814
21
255.700688
0
LINE
8
Layer 1
10
99.953819
20
255.527104
11
99.518761
21
255.527104
0
LINE
8
Layer 1
10
99.518761
20
255.527104
11
99.518761
21
257.128911
0
LINE
8
Layer 1
10
99.518761
20
257.128911
11
97.886192
21
257.128911
0
LINE
8
Layer 1
10
97.886192
20
257.128911
11
97.886192
21
255.527104
0
LINE
8
Layer 1
10
97.886192
20
255.527104
11
97.451134
21
255.527104
0
LINE
8
Layer 1
10
97.451134
20
255.527104
11
97.451134
21
258.798833
0
LINE
8
Layer 1
10
97.451134
20
258.798833
11
97.886192
21
258.798833
0
LINE
8
Layer 1
10
97.886192
20
258.798833
11
97.886192
21
257.515630
0
LINE
8
Layer 1
10
97.886192
20
257.515630
11
99.518761
21
257.515630
0
LINE
8
Layer 1
10
99.518761
20
257.515630
11
99.518761
21
258.798833
0
LINE
8
Layer 1
10
99.518761
20
258.798833
11
99.953819
21
258.798833
0
LINE
8
Layer 1
10
99.953819
20
258.798833
11
99.953819
21
255.527104
0
LINE
8
Layer 1
10
101.243610
20
258.392339
11
100.777790
21
258.392339
0
LINE
8
Layer 1
10
100.777790
20
258.392339
11
100.777790
21
258.820805
0
LINE
8
Layer 1
10
100.777790
20
258.820805
11
101.243610
21
258.820805
0
LINE
8
Layer 1
10
101.243610
20
258.820805
11
101.243610
21
258.392339
0
LINE
8
Layer 1
10
101.217210
20
255.527104
11
100.804120
21
255.527104
0
LINE
8
Layer 1
10
100.804120
20
255.527104
11
100.804120
21
257.981450
0
LINE
8
Layer 1
10
100.804120
20
257.981450
11
101.217210
21
257.981450
0
LINE
8
Layer 1
10
101.217210
20
257.981450
11
101.217210
21
255.527104
0
LINE
8
Layer 1
10
104.025310
20
255.806157
11
103.954450
21
255.265080
0
LINE
8
Layer 1
10
103.954450
20
255.265080
11
103.741870
21
254.889897
0
LINE
8
Layer 1
10
103.741870
20
254.889897
11
103.382065
21
254.670720
0
LINE
8
Layer 1
10
103.382065
20
254.670720
11
102.869550
21
254.597661
0
LINE
8
Layer 1
10
102.869550
20
254.597661
11
102.487230
21
254.626221
0
LINE
8
Layer 1
10
102.487230
20
254.626221
11
102.122480
21
254.703121
0
LINE
8
Layer 1
10
102.122480
20
254.703121
11
102.122480
21
255.124996
0
LINE
8
Layer 1
10
102.122480
20
255.124996
11
102.144480
21
255.124996
0
LINE
8
Layer 1
10
102.144480
20
255.124996
11
102.465280
21
255.028316
0
LINE
8
Layer 1
10
102.465280
20
255.028316
11
102.904740
21
254.968986
0
LINE
8
Layer 1
10
102.904740
20
254.968986
11
103.254100
21
255.019526
0
LINE
8
Layer 1
10
103.254100
20
255.019526
11
103.469430
21
255.160151
0
LINE
8
Layer 1
10
103.469430
20
255.160151
11
103.579300
21
255.366694
0
LINE
8
Layer 1
10
103.579300
20
255.366694
11
103.612300
21
255.636957
0
LINE
8
Layer 1
10
103.612300
20
255.636957
11
103.612300
21
255.861079
0
LINE
8
Layer 1
10
103.612300
20
255.861079
11
103.254140
21
255.636957
0
LINE
8
Layer 1
10
103.254140
20
255.636957
11
102.821280
21
255.564447
0
LINE
8
Layer 1
10
102.821280
20
255.564447
11
102.426872
21
255.643548
0
LINE
8
Layer 1
10
102.426872
20
255.643548
11
102.122550
21
255.880853
0
LINE
8
Layer 1
10
102.122550
20
255.880853
11
101.929740
21
256.264275
0
LINE
8
Layer 1
10
101.929740
20
256.264275
11
101.865470
21
256.777337
0
LINE
8
Layer 1
10
101.865470
20
256.777337
11
101.953370
21
257.322259
0
LINE
8
Layer 1
10
101.953370
20
257.322259
11
102.197270
21
257.719964
0
LINE
8
Layer 1
10
102.197270
20
257.719964
11
102.544440
21
257.961663
0
LINE
8
Layer 1
10
102.544440
20
257.961663
11
102.950930
21
258.049553
0
LINE
8
Layer 1
10
102.950930
20
258.049553
11
103.306890
21
258.005613
0
LINE
8
Layer 1
10
103.306890
20
258.005613
11
103.612310
21
257.875974
0
LINE
8
Layer 1
10
103.612310
20
257.875974
11
103.638710
21
257.981443
0
LINE
8
Layer 1
10
103.638710
20
257.981443
11
104.025430
21
257.981443
0
LINE
8
Layer 1
10
104.025430
20
257.981443
11
104.025310
21
255.806157
0
LINE
8
Layer 1
10
103.612230
20
256.201665
11
103.612230
21
257.539799
0
LINE
8
Layer 1
10
103.612230
20
257.539799
11
103.304610
21
257.645268
0
LINE
8
Layer 1
10
103.304610
20
257.645268
11
103.023360
21
257.678228
0
LINE
8
Layer 1
10
103.023360
20
257.678228
11
102.487230
21
257.449713
0
LINE
8
Layer 1
10
102.487230
20
257.449713
11
102.291670
21
256.786138
0
LINE
8
Layer 1
10
102.291670
20
256.786138
11
102.436690
21
256.159918
0
LINE
8
Layer 1
10
102.436690
20
256.159918
11
102.917890
21
255.946783
0
LINE
8
Layer 1
10
102.917890
20
255.946783
11
103.278240
21
256.014893
0
LINE
8
Layer 1
10
103.278240
20
256.014893
11
103.612230
21
256.201661
0
LINE
8
Layer 1
10
103.612230
20
256.201661
11
103.612230
21
256.201665
0
LINE
8
Layer 1
10
106.890550
20
255.527104
11
106.477460
21
255.527104
0
LINE
8
Layer 1
10
106.477460
20
255.527104
11
106.477460
21
256.924565
0
LINE
8
Layer 1
10
106.477460
20
256.924565
11
106.457660
21
257.240971
0
LINE
8
Layer 1
10
106.457660
20
257.240971
11
106.385160
21
257.473882
0
LINE
8
Layer 1
10
106.385160
20
257.473882
11
106.226950
21
257.610112
0
LINE
8
Layer 1
10
106.226950
20
257.610112
11
105.958890
21
257.656252
0
LINE
8
Layer 1
10
105.958890
20
257.656252
11
105.605130
21
257.572752
0
LINE
8
Layer 1
10
105.605130
20
257.572752
11
105.251370
21
257.359618
0
LINE
8
Layer 1
10
105.251370
20
257.359618
11
105.251370
21
255.527098
0
LINE
8
Layer 1
10
105.251370
20
255.527098
11
104.838280
21
255.527098
0
LINE
8
Layer 1
10
104.838280
20
255.527098
11
104.838280
21
258.946043
0
LINE
8
Layer 1
10
104.838280
20
258.946043
11
105.251370
21
258.946043
0
LINE
8
Layer 1
10
105.251370
20
258.946043
11
105.251370
21
257.708983
0
LINE
8
Layer 1
10
105.251370
20
257.708983
11
105.651270
21
257.959471
0
LINE
8
Layer 1
10
105.651270
20
257.959471
11
106.075340
21
258.049561
0
LINE
8
Layer 1
10
106.075340
20
258.049561
11
106.681790
21
257.810059
0
LINE
8
Layer 1
10
106.681790
20
257.810059
11
106.890530
21
257.120118
0
LINE
8
Layer 1
10
106.890530
20
257.120118
11
106.890550
21
255.527104
0
LINE
8
Layer 1
10
132.449770
20
255.096440
11
131.885070
21
255.096440
0
LINE
8
Layer 1
10
131.885070
20
255.096440
11
130.790830
21
256.397221
0
LINE
8
Layer 1
10
130.790830
20
256.397221
11
130.177800
21
256.397221
0
LINE
8
Layer 1
10
130.177800
20
256.397221
11
130.177800
21
255.096440
0
LINE
8
Layer 1
10
130.177800
20
255.096440
11
129.742740
21
255.096440
0
LINE
8
Layer 1
10
129.742740
20
255.096440
11
129.742740
21
258.368169
0
LINE
8
Layer 1
10
129.742740
20
258.368169
11
130.659000
21
258.368169
0
LINE
8
Layer 1
10
130.659000
20
258.368169
11
131.153380
21
258.328619
0
LINE
8
Layer 1
10
131.153380
20
258.328619
11
131.509340
21
258.192388
0
LINE
8
Layer 1
10
131.509340
20
258.192388
11
131.786190
21
257.908941
0
LINE
8
Layer 1
10
131.786190
20
257.908941
11
131.887270
21
257.478277
0
LINE
8
Layer 1
10
131.887270
20
257.478277
11
131.709290
21
256.885015
0
LINE
8
Layer 1
10
131.709290
20
256.885015
11
131.219300
21
256.526861
0
LINE
8
Layer 1
10
131.219300
20
256.526861
11
132.449770
21
255.096440
0
LINE
8
Layer 1
10
131.432430
20
257.447514
11
131.381930
21
257.695805
0
LINE
8
Layer 1
10
131.381930
20
257.695805
11
131.219330
21
257.880376
0
LINE
8
Layer 1
10
131.219330
20
257.880376
11
130.995210
21
257.968266
0
LINE
8
Layer 1
10
130.995210
20
257.968266
11
130.689790
21
257.994636
0
LINE
8
Layer 1
10
130.689790
20
257.994636
11
130.177830
21
257.994636
0
LINE
8
Layer 1
10
130.177830
20
257.994636
11
130.177830
21
256.759773
0
LINE
8
Layer 1
10
130.177830
20
256.759773
11
130.617280
21
256.759773
0
LINE
8
Layer 1
10
130.617280
20
256.759773
11
130.977630
21
256.794933
0
LINE
8
Layer 1
10
130.977630
20
256.794933
11
131.239100
21
256.931164
0
LINE
8
Layer 1
10
131.239100
20
256.931164
11
131.384120
21
257.142101
0
LINE
8
Layer 1
10
131.384120
20
257.142101
11
131.432420
21
257.447521
0
LINE
8
Layer 1
10
131.432420
20
257.447521
11
131.432430
21
257.447514
0
LINE
8
Layer 1
10
134.783260
20
256.280766
11
132.974910
21
256.280766
0
LINE
8
Layer 1
10
132.974910
20
256.280766
11
133.043010
21
255.885258
0
LINE
8
Layer 1
10
133.043010
20
255.885258
11
133.229780
21
255.610600
0
LINE
8
Layer 1
10
133.229780
20
255.610600
11
133.500040
21
255.452397
0
LINE
8
Layer 1
10
133.500040
20
255.452397
11
133.847210
21
255.399667
0
LINE
8
Layer 1
10
133.847210
20
255.399667
11
134.350380
21
255.498547
0
LINE
8
Layer 1
10
134.350380
20
255.498547
11
134.712930
21
255.696301
0
LINE
8
Layer 1
10
134.712930
20
255.696301
11
134.734930
21
255.696301
0
LINE
8
Layer 1
10
134.734930
20
255.696301
11
134.734930
21
255.245861
0
LINE
8
Layer 1
10
134.734930
20
255.245861
11
134.308660
21
255.098644
0
LINE
8
Layer 1
10
134.308660
20
255.098644
11
133.851630
21
255.039314
0
LINE
8
Layer 1
10
133.851630
20
255.039314
11
133.307808
21
255.121712
0
LINE
8
Layer 1
10
133.307808
20
255.121712
11
132.898020
21
255.368904
0
LINE
8
Layer 1
10
132.898020
20
255.368904
11
132.640943
21
255.769905
0
LINE
8
Layer 1
10
132.640943
20
255.769905
11
132.555250
21
256.309334
0
LINE
8
Layer 1
10
132.555250
20
256.309334
11
132.637098
21
256.849312
0
LINE
8
Layer 1
10
132.637098
20
256.849312
11
132.882640
21
257.265144
0
LINE
8
Layer 1
10
132.882640
20
257.265144
11
133.263865
21
257.530464
0
LINE
8
Layer 1
10
133.263865
20
257.530464
11
133.748360
21
257.618904
0
LINE
8
Layer 1
10
133.748360
20
257.618904
11
134.187813
21
257.546394
0
LINE
8
Layer 1
10
134.187813
20
257.546394
11
134.513010
21
257.328865
0
LINE
8
Layer 1
10
134.513010
20
257.328865
11
134.715705
21
256.977852
0
LINE
8
Layer 1
10
134.715705
20
256.977852
11
134.783270
21
256.504890
0
LINE
8
Layer 1
10
134.783270
20
256.504890
11
134.783260
21
256.280766
0
LINE
8
Layer 1
10
134.381160
20
256.597173
11
134.216370
21
257.100346
0
LINE
8
Layer 1
10
134.216370
20
257.100346
11
133.726380
21
257.278325
0
LINE
8
Layer 1
10
133.726380
20
257.278325
11
133.196840
21
257.082768
0
LINE
8
Layer 1
10
133.196840
20
257.082768
11
132.974910
21
256.597173
0
LINE
8
Layer 1
10
132.974910
20
256.597173
11
134.381160
21
256.597173
0
LINE
8
Layer 1
10
137.532040
20
257.550786
11
136.538880
21
255.096440
0
LINE
8
Layer 1
10
136.538880
20
255.096440
11
136.123600
21
255.096440
0
LINE
8
Layer 1
10
136.123600
20
255.096440
11
135.137020
21
257.550786
0
LINE
8
Layer 1
10
135.137020
20
257.550786
11
135.585270
21
257.550786
0
LINE
8
Layer 1
10
135.585270
20
257.550786
11
136.345520
21
255.597417
0
LINE
8
Layer 1
10
136.345520
20
255.597417
11
137.099180
21
257.550786
0
LINE
8
Layer 1
10
137.099180
20
257.550786
11
137.532040
21
257.550786
0
LINE
8
Layer 1
10
140.087460
20
256.280766
11
138.279110
21
256.280766
0
LINE
8
Layer 1
10
138.279110
20
256.280766
11
138.347210
21
255.885258
0
LINE
8
Layer 1
10
138.347210
20
255.885258
11
138.533980
21
255.610600
0
LINE
8
Layer 1
10
138.533980
20
255.610600
11
138.804240
21
255.452397
0
LINE
8
Layer 1
10
138.804240
20
255.452397
11
139.151410
21
255.399667
0
LINE
8
Layer 1
10
139.151410
20
255.399667
11
139.654580
21
255.498547
0
LINE
8
Layer 1
10
139.654580
20
255.498547
11
140.017130
21
255.696301
0
LINE
8
Layer 1
10
140.017130
20
255.696301
11
140.039130
21
255.696301
0
LINE
8
Layer 1
10
140.039130
20
255.696301
11
140.039130
21
255.245861
0
LINE
8
Layer 1
10
140.039130
20
255.245861
11
139.612860
21
255.098644
0
LINE
8
Layer 1
10
139.612860
20
255.098644
11
139.155830
21
255.039314
0
LINE
8
Layer 1
10
139.155830
20
255.039314
11
138.612008
21
255.121712
0
LINE
8
Layer 1
10
138.612008
20
255.121712
11
138.202220
21
255.368904
0
LINE
8
Layer 1
10
138.202220
20
255.368904
11
137.945143
21
255.769905
0
LINE
8
Layer 1
10
137.945143
20
255.769905
11
137.859450
21
256.309334
0
LINE
8
Layer 1
10
137.859450
20
256.309334
11
137.941298
21
256.849312
0
LINE
8
Layer 1
10
137.941298
20
256.849312
11
138.186840
21
257.265144
0
LINE
8
Layer 1
10
138.186840
20
257.265144
11
138.568065
21
257.530464
0
LINE
8
Layer 1
10
138.568065
20
257.530464
11
139.052560
21
257.618904
0
LINE
8
Layer 1
10
139.052560
20
257.618904
11
139.492013
21
257.546394
0
LINE
8
Layer 1
10
139.492013
20
257.546394
11
139.817210
21
257.328865
0
LINE
8
Layer 1
10
139.817210
20
257.328865
11
140.019905
21
256.977852
0
LINE
8
Layer 1
10
140.019905
20
256.977852
11
140.087470
21
256.504890
0
LINE
8
Layer 1
10
140.087470
20
256.504890
11
140.087460
21
256.280766
0
LINE
8
Layer 1
10
139.685360
20
256.597173
11
139.520570
21
257.100346
0
LINE
8
Layer 1
10
139.520570
20
257.100346
11
139.030580
21
257.278325
0
LINE
8
Layer 1
10
139.030580
20
257.278325
11
138.501040
21
257.082768
0
LINE
8
Layer 1
10
138.501040
20
257.082768
11
138.279110
21
256.597173
0
LINE
8
Layer 1
10
138.279110
20
256.597173
11
139.685360
21
256.597173
0
LINE
8
Layer 1
10
142.245180
20
257.100346
11
142.223180
21
257.100346
0
LINE
8
Layer 1
10
142.223180
20
257.100346
11
142.043000
21
257.131106
0
LINE
8
Layer 1
10
142.043000
20
257.131106
11
141.838650
21
257.142096
0
LINE
8
Layer 1
10
141.838650
20
257.142096
11
141.469510
21
257.056406
0
LINE
8
Layer 1
10
141.469510
20
257.056406
11
141.126740
21
256.838877
0
LINE
8
Layer 1
10
141.126740
20
256.838877
11
141.126740
21
255.096445
0
LINE
8
Layer 1
10
141.126740
20
255.096445
11
140.713650
21
255.096445
0
LINE
8
Layer 1
10
140.713650
20
255.096445
11
140.713650
21
257.550791
0
LINE
8
Layer 1
10
140.713650
20
257.550791
11
141.126740
21
257.550791
0
LINE
8
Layer 1
10
141.126740
20
257.550791
11
141.126740
21
257.188242
0
LINE
8
Layer 1
10
141.126740
20
257.188242
11
141.559600
21
257.467295
0
LINE
8
Layer 1
10
141.559600
20
257.467295
11
141.944120
21
257.550795
0
LINE
8
Layer 1
10
141.944120
20
257.550795
11
142.100130
21
257.544195
0
LINE
8
Layer 1
10
142.100130
20
257.544195
11
142.245150
21
257.524415
0
LINE
8
Layer 1
10
142.245150
20
257.524415
11
142.245180
21
257.100346
0
LINE
8
Layer 1
10
144.794010
20
256.342290
11
144.706110
21
255.788579
0
LINE
8
Layer 1
10
144.706110
20
255.788579
11
144.473200
21
255.375493
0
LINE
8
Layer 1
10
144.473200
20
255.375493
11
144.130420
21
255.114018
0
LINE
8
Layer 1
10
144.130420
20
255.114018
11
143.719530
21
255.028328
0
LINE
8
Layer 1
10
143.719530
20
255.028328
11
143.354790
21
255.078868
0
LINE
8
Layer 1
10
143.354790
20
255.078868
11
143.047170
21
255.210704
0
LINE
8
Layer 1
10
143.047170
20
255.210704
11
143.020770
21
255.096446
0
LINE
8
Layer 1
10
143.020770
20
255.096446
11
142.634050
21
255.096446
0
LINE
8
Layer 1
10
142.634050
20
255.096446
11
142.634050
21
258.515391
0
LINE
8
Layer 1
10
142.634050
20
258.515391
11
143.047140
21
258.515391
0
LINE
8
Layer 1
10
143.047140
20
258.515391
11
143.047140
21
257.293712
0
LINE
8
Layer 1
10
143.047140
20
257.293712
11
143.416280
21
257.526622
0
LINE
8
Layer 1
10
143.416280
20
257.526622
11
143.855730
21
257.618902
0
LINE
8
Layer 1
10
143.855730
20
257.618902
11
144.244648
21
257.535406
0
LINE
8
Layer 1
10
144.244648
20
257.535406
11
144.541280
21
257.284918
0
LINE
8
Layer 1
10
144.541280
20
257.284918
11
144.730798
21
256.882269
0
LINE
8
Layer 1
10
144.730798
20
256.882269
11
144.793970
21
256.342291
0
LINE
8
Layer 1
10
144.793970
20
256.342291
11
144.794010
21
256.342290
0
LINE
8
Layer 1
10
144.367740
20
256.331300
11
144.222720
21
256.997072
0
LINE
8
Layer 1
10
144.222720
20
256.997072
11
143.754700
21
257.225588
0
LINE
8
Layer 1
10
143.754700
20
257.225588
11
143.389950
21
257.146488
0
LINE
8
Layer 1
10
143.389950
20
257.146488
11
143.047180
21
256.946537
0
LINE
8
Layer 1
10
143.047180
20
256.946537
11
143.047180
21
255.540287
0
LINE
8
Layer 1
10
143.047180
20
255.540287
11
143.348210
21
255.430423
0
LINE
8
Layer 1
10
143.348210
20
255.430423
11
143.636050
21
255.399663
0
LINE
8
Layer 1
10
143.636050
20
255.399663
11
144.172180
21
255.623784
0
LINE
8
Layer 1
10
144.172180
20
255.623784
11
144.367740
21
256.331303
0
LINE
8
Layer 1
10
144.367740
20
256.331303
11
144.367740
21
256.331300
0
LINE
8
Layer 1
10
168.951320
20
257.975957
11
167.296780
21
257.975957
0
LINE
8
Layer 1
10
167.296780
20
257.975957
11
167.296780
21
257.053105
0
LINE
8
Layer 1
10
167.296780
20
257.053105
11
168.718410
21
257.053105
0
LINE
8
Layer 1
10
168.718410
20
257.053105
11
168.718410
21
256.666386
0
LINE
8
Layer 1
10
168.718410
20
256.666386
11
167.296780
21
256.666386
0
LINE
8
Layer 1
10
167.296780
20
256.666386
11
167.296780
21
255.090947
0
LINE
8
Layer 1
10
167.296780
20
255.090947
11
166.861720
21
255.090947
0
LINE
8
Layer 1
10
166.861720
20
255.090947
11
166.861720
21
258.362675
0
LINE
8
Layer 1
10
166.861720
20
258.362675
11
168.951320
21
258.362675
0
LINE
8
Layer 1
10
168.951320
20
258.362675
11
168.951320
21
257.975957
0
LINE
8
Layer 1
10
169.858800
20
257.956177
11
169.392970
21
257.956177
0
LINE
8
Layer 1
10
169.392970
20
257.956177
11
169.392970
21
258.384644
0
LINE
8
Layer 1
10
169.392970
20
258.384644
11
169.858800
21
258.384644
0
LINE
8
Layer 1
10
169.858800
20
258.384644
11
169.858800
21
257.956177
0
LINE
8
Layer 1
10
169.832400
20
255.090943
11
169.419310
21
255.090943
0
LINE
8
Layer 1
10
169.419310
20
255.090943
11
169.419310
21
257.545289
0
LINE
8
Layer 1
10
169.419310
20
257.545289
11
169.832400
21
257.545289
0
LINE
8
Layer 1
10
169.832400
20
257.545289
11
169.832400
21
255.090943
0
LINE
8
Layer 1
10
171.067260
20
255.090943
11
170.654180
21
255.090943
0
LINE
8
Layer 1
10
170.654180
20
255.090943
11
170.654180
21
258.509888
0
LINE
8
Layer 1
10
170.654180
20
258.509888
11
171.067260
21
258.509888
0
LINE
8
Layer 1
10
171.067260
20
258.509888
11
171.067260
21
255.090943
0
LINE
8
Layer 1
10
173.159060
20
255.112913
11
172.904180
21
255.062373
0
LINE
8
Layer 1
10
172.904180
20
255.062373
11
172.660280
21
255.042593
0
LINE
8
Layer 1
10
172.660280
20
255.042593
11
172.088990
21
255.244742
0
LINE
8
Layer 1
10
172.088990
20
255.244742
11
171.893430
21
255.892935
0
LINE
8
Layer 1
10
171.893430
20
255.892935
11
171.893430
21
257.198111
0
LINE
8
Layer 1
10
171.893430
20
257.198111
11
171.614380
21
257.198111
0
LINE
8
Layer 1
10
171.614380
20
257.198111
11
171.614380
21
257.545279
0
LINE
8
Layer 1
10
171.614380
20
257.545279
11
171.893430
21
257.545279
0
LINE
8
Layer 1
10
171.893430
20
257.545279
11
171.893430
21
258.250601
0
LINE
8
Layer 1
10
171.893430
20
258.250601
11
172.306520
21
258.250601
0
LINE
8
Layer 1
10
172.306520
20
258.250601
11
172.306520
21
257.545279
0
LINE
8
Layer 1
10
172.306520
20
257.545279
11
173.159060
21
257.545279
0
LINE
8
Layer 1
10
173.159060
20
257.545279
11
173.159060
21
257.198111
0
LINE
8
Layer 1
10
173.159060
20
257.198111
11
172.306520
21
257.198111
0
LINE
8
Layer 1
10
172.306520
20
257.198111
11
172.306520
21
256.079702
0
LINE
8
Layer 1
10
172.306520
20
256.079702
11
172.315520
21
255.776480
0
LINE
8
Layer 1
10
172.315520
20
255.776480
11
172.377020
21
255.574331
0
LINE
8
Layer 1
10
172.377020
20
255.574331
11
172.508860
21
255.444693
0
LINE
8
Layer 1
10
172.508860
20
255.444693
11
172.768130
21
255.405143
0
LINE
8
Layer 1
10
172.768130
20
255.405143
11
172.979070
21
255.433703
0
LINE
8
Layer 1
10
172.979070
20
255.433703
11
173.137280
21
255.484243
0
LINE
8
Layer 1
10
173.137280
20
255.484243
11
173.159280
21
255.484243
0
LINE
8
Layer 1
10
173.159280
20
255.484243
11
173.159060
21
255.112913
0
LINE
8
Layer 1
10
175.712280
20
256.275266
11
173.903930
21
256.275266
0
LINE
8
Layer 1
10
173.903930
20
256.275266
11
173.972030
21
255.879758
0
LINE
8
Layer 1
10
173.972030
20
255.879758
11
174.158790
21
255.605100
0
LINE
8
Layer 1
10
174.158790
20
255.605100
11
174.429060
21
255.446897
0
LINE
8
Layer 1
10
174.429060
20
255.446897
11
174.776230
21
255.394167
0
LINE
8
Layer 1
10
174.776230
20
255.394167
11
175.279400
21
255.493047
0
LINE
8
Layer 1
10
175.279400
20
255.493047
11
175.641950
21
255.690800
0
LINE
8
Layer 1
10
175.641950
20
255.690800
11
175.663950
21
255.690800
0
LINE
8
Layer 1
10
175.663950
20
255.690800
11
175.663950
21
255.240361
0
LINE
8
Layer 1
10
175.663950
20
255.240361
11
175.237680
21
255.093144
0
LINE
8
Layer 1
10
175.237680
20
255.093144
11
174.780650
21
255.033814
0
LINE
8
Layer 1
10
174.780650
20
255.033814
11
174.236828
21
255.116211
0
LINE
8
Layer 1
10
174.236828
20
255.116211
11
173.827040
21
255.363404
0
LINE
8
Layer 1
10
173.827040
20
255.363404
11
173.569955
21
255.764405
0
LINE
8
Layer 1
10
173.569955
20
255.764405
11
173.484260
21
256.303834
0
LINE
8
Layer 1
10
173.484260
20
256.303834
11
173.566110
21
256.843812
0
LINE
8
Layer 1
10
173.566110
20
256.843812
11
173.811660
21
257.259644
0
LINE
8
Layer 1
10
173.811660
20
257.259644
11
174.192885
21
257.524964
0
LINE
8
Layer 1
10
174.192885
20
257.524964
11
174.677380
21
257.613404
0
LINE
8
Layer 1
10
174.677380
20
257.613404
11
175.116833
21
257.540894
0
LINE
8
Layer 1
10
175.116833
20
257.540894
11
175.442030
21
257.323365
0
LINE
8
Layer 1
10
175.442030
20
257.323365
11
175.644725
21
256.972352
0
LINE
8
Layer 1
10
175.644725
20
256.972352
11
175.712290
21
256.499390
0
LINE
8
Layer 1
10
175.712290
20
256.499390
11
175.712280
21
256.275266
0
LINE
8
Layer 1
10
175.310180
20
256.591672
11
175.145390
21
257.094846
0
LINE
8
Layer 1
10
175.145390
20
257.094846
11
174.655400
21
257.272825
0
LINE
8
Layer 1
10
174.655400
20
257.272825
11
174.125860
21
257.077268
0
LINE
8
Layer 1
10
174.125860
20
257.077268
11
173.903930
21
256.591672
0
LINE
8
Layer 1
10
173.903930
20
256.591672
11
175.310180
21
256.591672
0
LINE
8
Layer 1
10
177.870000
20
257.094846
11
177.848000
21
257.094846
0
LINE
8
Layer 1
10
177.848000
20
257.094846
11
177.667830
21
257.125606
0
LINE
8
Layer 1
10
177.667830
20
257.125606
11
177.463480
21
257.136596
0
LINE
8
Layer 1
10
177.463480
20
257.136596
11
177.094340
21
257.050906
0
LINE
8
Layer 1
10
177.094340
20
257.050906
11
176.751570
21
256.833377
0
LINE
8
Layer 1
10
176.751570
20
256.833377
11
176.751570
21
255.090945
0
LINE
8
Layer 1
10
176.751570
20
255.090945
11
176.338480
21
255.090945
0
LINE
8
Layer 1
10
176.338480
20
255.090945
11
176.338480
21
257.545291
0
LINE
8
Layer 1
10
176.338480
20
257.545291
11
176.751570
21
257.545291
0
LINE
8
Layer 1
10
176.751570
20
257.545291
11
176.751570
21
257.182742
0
LINE
8
Layer 1
10
176.751570
20
257.182742
11
177.184430
21
257.461795
0
LINE
8
Layer 1
10
177.184430
20
257.461795
11
177.568950
21
257.545295
0
LINE
8
Layer 1
10
177.568950
20
257.545295
11
177.724960
21
257.538695
0
LINE
8
Layer 1
10
177.724960
20
257.538695
11
177.869980
21
257.518915
0
LINE
8
Layer 1
10
177.869980
20
257.518915
11
177.870000
21
257.094846
0
LINE
8
Layer 1
10
201.755390
20
260.290314
11
200.564470
21
257.018586
0
LINE
8
Layer 1
10
200.564470
20
257.018586
11
199.984390
21
257.018586
0
LINE
8
Layer 1
10
199.984390
20
257.018586
11
198.793470
21
260.290314
0
LINE
8
Layer 1
10
198.793470
20
260.290314
11
199.259290
21
260.290314
0
LINE
8
Layer 1
10
199.259290
20
260.290314
11
200.285420
21
257.411897
0
LINE
8
Layer 1
10
200.285420
20
257.411897
11
201.311540
21
260.290314
0
LINE
8
Layer 1
10
201.311540
20
260.290314
11
201.755390
21
260.290314
0
LINE
8
Layer 1
10
204.091080
20
258.244660
11
204.014175
21
257.707978
0
LINE
8
Layer 1
10
204.014175
20
257.707978
11
203.783460
21
257.297639
0
LINE
8
Layer 1
10
203.783460
20
257.297639
11
203.423662
21
257.037263
0
LINE
8
Layer 1
10
203.423662
20
257.037263
11
202.959490
21
256.950471
0
LINE
8
Layer 1
10
202.959490
20
256.950471
11
202.492023
21
257.037263
0
LINE
8
Layer 1
10
202.492023
20
257.037263
11
202.131120
21
257.297639
0
LINE
8
Layer 1
10
202.131120
20
257.297639
11
201.902055
21
257.707978
0
LINE
8
Layer 1
10
201.902055
20
257.707978
11
201.825700
21
258.244660
0
LINE
8
Layer 1
10
201.825700
20
258.244660
11
201.902055
21
258.781343
0
LINE
8
Layer 1
10
201.902055
20
258.781343
11
202.131120
21
259.191682
0
LINE
8
Layer 1
10
202.131120
20
259.191682
11
202.492023
21
259.453706
0
LINE
8
Layer 1
10
202.492023
20
259.453706
11
202.959490
21
259.541047
0
LINE
8
Layer 1
10
202.959490
20
259.541047
11
203.423662
21
259.453706
0
LINE
8
Layer 1
10
203.423662
20
259.453706
11
203.783460
21
259.191682
0
LINE
8
Layer 1
10
203.783460
20
259.191682
11
204.014175
21
258.781343
0
LINE
8
Layer 1
10
204.014175
20
258.781343
11
204.091080
21
258.244660
0
LINE
8
Layer 1
10
204.091080
20
258.244660
11
204.091080
21
258.244660
0
LINE
8
Layer 1
10
203.664810
20
258.244660
11
203.478040
21
258.952180
0
LINE
8
Layer 1
10
203.478040
20
258.952180
11
202.959490
21
259.185090
0
LINE
8
Layer 1
10
202.959490
20
259.185090
11
202.436540
21
258.952180
0
LINE
8
Layer 1
10
202.436540
20
258.952180
11
202.251970
21
258.244660
0
LINE
8
Layer 1
10
202.251970
20
258.244660
11
202.438740
21
257.543732
0
LINE
8
Layer 1
10
202.438740
20
257.543732
11
202.959490
21
257.306428
0
LINE
8
Layer 1
10
202.959490
20
257.306428
11
203.475850
21
257.541535
0
LINE
8
Layer 1
10
203.475850
20
257.541535
11
203.664810
21
258.244660
0
LINE
8
Layer 1
10
203.664810
20
258.244660
11
203.664810
21
258.244660
0
LINE
8
Layer 1
10
205.147960
20
257.018586
11
204.734880
21
257.018586
0
LINE
8
Layer 1
10
204.734880
20
257.018586
11
204.734880
21
260.437531
0
LINE
8
Layer 1
10
204.734880
20
260.437531
11
205.147960
21
260.437531
0
LINE
8
Layer 1
10
205.147960
20
260.437531
11
205.147960
21
257.018586
0
LINE
8
Layer 1
10
208.000020
20
257.018586
11
207.586930
21
257.018586
0
LINE
8
Layer 1
10
207.586930
20
257.018586
11
207.586930
21
257.291047
0
LINE
8
Layer 1
10
207.586930
20
257.291047
11
207.187030
21
257.038361
0
LINE
8
Layer 1
10
207.187030
20
257.038361
11
206.765150
21
256.950471
0
LINE
8
Layer 1
10
206.765150
20
256.950471
11
206.163100
21
257.185578
0
LINE
8
Layer 1
10
206.163100
20
257.185578
11
205.947770
21
257.879914
0
LINE
8
Layer 1
10
205.947770
20
257.879914
11
205.947770
21
259.472932
0
LINE
8
Layer 1
10
205.947770
20
259.472932
11
206.360860
21
259.472932
0
LINE
8
Layer 1
10
206.360860
20
259.472932
11
206.360860
21
258.075471
0
LINE
8
Layer 1
10
206.360860
20
258.075471
11
206.378460
21
257.754670
0
LINE
8
Layer 1
10
206.378460
20
257.754670
11
206.453160
21
257.528352
0
LINE
8
Layer 1
10
206.453160
20
257.528352
11
206.606970
21
257.387727
0
LINE
8
Layer 1
10
206.606970
20
257.387727
11
206.881630
21
257.343777
0
LINE
8
Layer 1
10
206.881630
20
257.343777
11
207.230990
21
257.427277
0
LINE
8
Layer 1
10
207.230990
20
257.427277
11
207.586950
21
257.640412
0
LINE
8
Layer 1
10
207.586950
20
257.640412
11
207.586950
21
259.472932
0
LINE
8
Layer 1
10
207.586950
20
259.472932
11
208.000040
21
259.472932
0
LINE
8
Layer 1
10
208.000040
20
259.472932
11
208.000020
21
257.018586
0
LINE
8
Layer 1
10
212.394550
20
257.018586
11
211.981460
21
257.018586
0
LINE
8
Layer 1
10
211.981460
20
257.018586
11
211.981460
21
258.416047
0
LINE
8
Layer 1
10
211.981460
20
258.416047
11
211.966060
21
258.721467
0
LINE
8
Layer 1
10
211.966060
20
258.721467
11
211.906760
21
258.956574
0
LINE
8
Layer 1
10
211.906760
20
258.956574
11
211.761740
21
259.099397
0
LINE
8
Layer 1
10
211.761740
20
259.099397
11
211.489280
21
259.147737
0
LINE
8
Layer 1
10
211.489280
20
259.147737
11
211.142120
21
259.059847
0
LINE
8
Layer 1
10
211.142120
20
259.059847
11
210.794950
21
258.840120
0
LINE
8
Layer 1
10
210.794950
20
258.840120
11
210.805950
21
258.721468
0
LINE
8
Layer 1
10
210.805950
20
258.721468
11
210.809950
21
258.589632
0
LINE
8
Layer 1
10
210.809950
20
258.589632
11
210.809950
21
257.018587
0
LINE
8
Layer 1
10
210.809950
20
257.018587
11
210.396860
21
257.018587
0
LINE
8
Layer 1
10
210.396860
20
257.018587
11
210.396860
21
258.416048
0
LINE
8
Layer 1
10
210.396860
20
258.416048
11
210.381460
21
258.723665
0
LINE
8
Layer 1
10
210.381460
20
258.723665
11
210.322160
21
258.958773
0
LINE
8
Layer 1
10
210.322160
20
258.958773
11
210.177140
21
259.099398
0
LINE
8
Layer 1
10
210.177140
20
259.099398
11
209.904670
21
259.147738
0
LINE
8
Layer 1
10
209.904670
20
259.147738
11
209.564100
21
259.064238
0
LINE
8
Layer 1
10
209.564100
20
259.064238
11
209.225720
21
258.851103
0
LINE
8
Layer 1
10
209.225720
20
258.851103
11
209.225720
21
257.018584
0
LINE
8
Layer 1
10
209.225720
20
257.018584
11
208.813000
21
257.018584
0
LINE
8
Layer 1
10
208.813000
20
257.018584
11
208.813000
21
259.472930
0
LINE
8
Layer 1
10
208.813000
20
259.472930
11
209.226090
21
259.472930
0
LINE
8
Layer 1
10
209.226090
20
259.472930
11
209.226090
21
259.200469
0
LINE
8
Layer 1
10
209.226090
20
259.200469
11
209.610610
21
259.450957
0
LINE
8
Layer 1
10
209.610610
20
259.450957
11
210.021500
21
259.541047
0
LINE
8
Layer 1
10
210.021500
20
259.541047
11
210.445570
21
259.435578
0
LINE
8
Layer 1
10
210.445570
20
259.435578
11
210.707050
21
259.143342
0
LINE
8
Layer 1
10
210.707050
20
259.143342
11
211.164080
21
259.446564
0
LINE
8
Layer 1
10
211.164080
20
259.446564
11
211.605730
21
259.541044
0
LINE
8
Layer 1
10
211.605730
20
259.541044
11
211.956745
21
259.479520
0
LINE
8
Layer 1
10
211.956745
20
259.479520
11
212.201190
21
259.294950
0
LINE
8
Layer 1
10
212.201190
20
259.294950
11
212.394550
21
258.611601
0
LINE
8
Layer 1
10
212.394550
20
258.611601
11
212.394550
21
257.018586
0
LINE
8
Layer 1
10
215.244400
20
258.202912
11
213.436050
21
258.202912
0
LINE
8
Layer 1
10
213.436050
20
258.202912
11
213.504150
21
257.807404
0
LINE
8
Layer 1
10
213.504150
20
257.807404
11
213.690910
21
257.532746
0
LINE
8
Layer 1
10
213.690910
20
257.532746
11
213.961180
21
257.374543
0
LINE
8
Layer 1
10
213.961180
20
257.374543
11
214.308340
21
257.321813
0
LINE
8
Layer 1
10
214.308340
20
257.321813
11
214.811520
21
257.420693
0
LINE
8
Layer 1
10
214.811520
20
257.420693
11
215.174070
21
257.618446
0
LINE
8
Layer 1
10
215.174070
20
257.618446
11
215.196070
21
257.618446
0
LINE
8
Layer 1
10
215.196070
20
257.618446
11
215.196070
21
257.168000
0
LINE
8
Layer 1
10
215.196070
20
257.168000
11
214.769800
21
257.020783
0
LINE
8
Layer 1
10
214.769800
20
257.020783
11
214.312770
21
256.961453
0
LINE
8
Layer 1
10
214.312770
20
256.961453
11
213.768947
21
257.043851
0
LINE
8
Layer 1
10
213.768947
20
257.043851
11
213.359160
21
257.291043
0
LINE
8
Layer 1
10
213.359160
20
257.291043
11
213.102075
21
257.692044
0
LINE
8
Layer 1
10
213.102075
20
257.692044
11
213.016380
21
258.231473
0
LINE
8
Layer 1
10
213.016380
20
258.231473
11
213.098230
21
258.771451
0
LINE
8
Layer 1
10
213.098230
20
258.771451
11
213.343780
21
259.187283
0
LINE
8
Layer 1
10
213.343780
20
259.187283
11
213.725005
21
259.452603
0
LINE
8
Layer 1
10
213.725005
20
259.452603
11
214.209500
21
259.541043
0
LINE
8
Layer 1
10
214.209500
20
259.541043
11
214.648952
21
259.468533
0
LINE
8
Layer 1
10
214.648952
20
259.468533
11
214.974150
21
259.251004
0
LINE
8
Layer 1
10
214.974150
20
259.251004
11
215.176845
21
258.899991
0
LINE
8
Layer 1
10
215.176845
20
258.899991
11
215.244410
21
258.427029
0
LINE
8
Layer 1
10
215.244410
20
258.427029
11
215.244400
21
258.202912
0
LINE
8
Layer 1
10
214.842300
20
258.519318
11
214.677510
21
259.022492
0
LINE
8
Layer 1
10
214.677510
20
259.022492
11
214.187520
21
259.200471
0
LINE
8
Layer 1
10
214.187520
20
259.200471
11
213.657970
21
259.004914
0
LINE
8
Layer 1
10
213.657970
20
259.004914
11
213.436050
21
258.519318
0
LINE
8
Layer 1
10
213.436050
20
258.519318
11
214.842300
21
258.519318
0
LINE
8
Layer 1
10
201.066540
20
256.070290
11
201.371960
21
255.531960
0
LINE
8
Layer 1
10
201.371960
20
255.531960
11
201.479630
21
254.809060
0
LINE
8
Layer 1
10
201.479630
20
254.809060
11
201.369770
21
254.083962
0
LINE
8
Layer 1
10
201.369770
20
254.083962
11
201.066540
21
253.552224
0
LINE
8
Layer 1
10
201.066540
20
253.552224
11
200.587540
21
253.218240
0
LINE
8
Layer 1
10
200.587540
20
253.218240
11
199.959120
21
253.106179
0
LINE
8
Layer 1
10
199.959120
20
253.106179
11
199.330700
21
253.220437
0
LINE
8
Layer 1
10
199.330700
20
253.220437
11
198.851700
21
253.552224
0
LINE
8
Layer 1
10
198.851700
20
253.552224
11
198.546280
21
254.086159
0
LINE
8
Layer 1
10
198.546280
20
254.086159
11
198.440810
21
254.809060
0
LINE
8
Layer 1
10
198.440810
20
254.809060
11
198.546280
21
255.525368
0
LINE
8
Layer 1
10
198.546280
20
255.525368
11
198.853900
21
256.070290
0
LINE
8
Layer 1
10
198.853900
20
256.070290
11
199.332900
21
256.399880
0
LINE
8
Layer 1
10
199.332900
20
256.399880
11
199.959120
21
256.514138
0
LINE
8
Layer 1
10
199.959120
20
256.514138
11
200.589740
21
256.397683
0
LINE
8
Layer 1
10
200.589740
20
256.397683
11
201.066540
21
256.070290
0
LINE
8
Layer 1
10
201.066540
20
256.070290
11
201.066540
21
256.070290
0
LINE
8
Layer 1
10
201.027040
20
254.809060
11
200.955630
21
255.373208
0
LINE
8
Layer 1
10
200.955630
20
255.373208
11
200.741400
21
255.791238
0
LINE
8
Layer 1
10
200.741400
20
255.791238
11
200.403567
21
256.051614
0
LINE
8
Layer 1
10
200.403567
20
256.051614
11
199.961370
21
256.138406
0
LINE
8
Layer 1
10
199.961370
20
256.138406
11
199.515875
21
256.051614
0
LINE
8
Layer 1
10
199.515875
20
256.051614
11
199.176950
21
255.791238
0
LINE
8
Layer 1
10
199.176950
20
255.791238
11
198.964362
21
255.373208
0
LINE
8
Layer 1
10
198.964362
20
255.373208
11
198.893500
21
254.809060
0
LINE
8
Layer 1
10
198.893500
20
254.809060
11
198.966010
21
254.240518
0
LINE
8
Layer 1
10
198.966010
20
254.240518
11
199.183540
21
253.822488
0
LINE
8
Layer 1
10
199.183540
20
253.822488
11
199.523017
21
253.567055
0
LINE
8
Layer 1
10
199.523017
20
253.567055
11
199.961370
21
253.481911
0
LINE
8
Layer 1
10
199.961370
20
253.481911
11
200.399172
21
253.567055
0
LINE
8
Layer 1
10
200.399172
20
253.567055
11
200.737000
21
253.822488
0
LINE
8
Layer 1
10
200.737000
20
253.822488
11
200.954530
21
254.240518
0
LINE
8
Layer 1
10
200.954530
20
254.240518
11
201.027040
21
254.809060
0
LINE
8
Layer 1
10
201.027040
20
254.809060
11
201.027040
21
254.809060
0
LINE
8
Layer 1
10
204.259220
20
255.628640
11
203.266060
21
253.174294
0
LINE
8
Layer 1
10
203.266060
20
253.174294
11
202.850770
21
253.174294
0
LINE
8
Layer 1
10
202.850770
20
253.174294
11
201.864200
21
255.628640
0
LINE
8
Layer 1
10
201.864200
20
255.628640
11
202.312440
21
255.628640
0
LINE
8
Layer 1
10
202.312440
20
255.628640
11
203.072700
21
253.675271
0
LINE
8
Layer 1
10
203.072700
20
253.675271
11
203.826360
21
255.628640
0
LINE
8
Layer 1
10
203.826360
20
255.628640
11
204.259220
21
255.628640
0
LINE
8
Layer 1
10
206.814640
20
254.358620
11
205.006290
21
254.358620
0
LINE
8
Layer 1
10
205.006290
20
254.358620
11
205.074390
21
253.963113
0
LINE
8
Layer 1
10
205.074390
20
253.963113
11
205.261150
21
253.688454
0
LINE
8
Layer 1
10
205.261150
20
253.688454
11
205.531420
21
253.530251
0
LINE
8
Layer 1
10
205.531420
20
253.530251
11
205.878590
21
253.477521
0
LINE
8
Layer 1
10
205.878590
20
253.477521
11
206.381760
21
253.576401
0
LINE
8
Layer 1
10
206.381760
20
253.576401
11
206.744310
21
253.774155
0
LINE
8
Layer 1
10
206.744310
20
253.774155
11
206.766310
21
253.774155
0
LINE
8
Layer 1
10
206.766310
20
253.774155
11
206.766310
21
253.323715
0
LINE
8
Layer 1
10
206.766310
20
253.323715
11
206.340040
21
253.176499
0
LINE
8
Layer 1
10
206.340040
20
253.176499
11
205.883010
21
253.117169
0
LINE
8
Layer 1
10
205.883010
20
253.117169
11
205.339187
21
253.199567
0
LINE
8
Layer 1
10
205.339187
20
253.199567
11
204.929400
21
253.446759
0
LINE
8
Layer 1
10
204.929400
20
253.446759
11
204.672315
21
253.847760
0
LINE
8
Layer 1
10
204.672315
20
253.847760
11
204.586620
21
254.387189
0
LINE
8
Layer 1
10
204.586620
20
254.387189
11
204.668470
21
254.927167
0
LINE
8
Layer 1
10
204.668470
20
254.927167
11
204.914020
21
255.342999
0
LINE
8
Layer 1
10
204.914020
20
255.342999
11
205.295245
21
255.608319
0
LINE
8
Layer 1
10
205.295245
20
255.608319
11
205.779740
21
255.696759
0
LINE
8
Layer 1
10
205.779740
20
255.696759
11
206.219192
21
255.624249
0
LINE
8
Layer 1
10
206.219192
20
255.624249
11
206.544390
21
255.406720
0
LINE
8
Layer 1
10
206.544390
20
255.406720
11
206.747085
21
255.055707
0
LINE
8
Layer 1
10
206.747085
20
255.055707
11
206.814650
21
254.582746
0
LINE
8
Layer 1
10
206.814650
20
254.582746
11
206.814640
21
254.358620
0
LINE
8
Layer 1
10
206.412540
20
254.675027
11
206.247750
21
255.178200
0
LINE
8
Layer 1
10
206.247750
20
255.178200
11
205.757760
21
255.356179
0
LINE
8
Layer 1
10
205.757760
20
255.356179
11
205.228210
21
255.160622
0
LINE
8
Layer 1
10
205.228210
20
255.160622
11
205.006290
21
254.675027
0
LINE
8
Layer 1
10
205.006290
20
254.675027
11
206.412540
21
254.675027
0
LINE
8
Layer 1
10
208.972360
20
255.178200
11
208.950360
21
255.178200
0
LINE
8
Layer 1
10
208.950360
20
255.178200
11
208.770190
21
255.208960
0
LINE
8
Layer 1
10
208.770190
20
255.208960
11
208.565840
21
255.219950
0
LINE
8
Layer 1
10
208.565840
20
255.219950
11
208.196700
21
255.134260
0
LINE
8
Layer 1
10
208.196700
20
255.134260
11
207.853930
21
254.916731
0
LINE
8
Layer 1
10
207.853930
20
254.916731
11
207.853930
21
253.174299
0
LINE
8
Layer 1
10
207.853930
20
253.174299
11
207.440840
21
253.174299
0
LINE
8
Layer 1
10
207.440840
20
253.174299
11
207.440840
21
255.628640
0
LINE
8
Layer 1
10
207.440840
20
255.628640
11
207.853930
21
255.628640
0
LINE
8
Layer 1
10
207.853930
20
255.628640
11
207.853930
21
255.266091
0
LINE
8
Layer 1
10
207.853930
20
255.266091
11
208.286790
21
255.545144
0
LINE
8
Layer 1
10
208.286790
20
255.545144
11
208.671310
21
255.628644
0
LINE
8
Layer 1
10
208.671310
20
255.628644
11
208.827320
21
255.622044
0
LINE
8
Layer 1
10
208.827320
20
255.622044
11
208.972340
21
255.602264
0
LINE
8
Layer 1
10
208.972340
20
255.602264
11
208.972360
21
255.178200
0
LINE
8
Layer 1
10
210.892770
20
255.178200
11
210.870770
21
255.178200
0
LINE
8
Layer 1
10
210.870770
20
255.178200
11
210.690600
21
255.208960
0
LINE
8
Layer 1
10
210.690600
20
255.208960
11
210.486250
21
255.219950
0
LINE
8
Layer 1
10
210.486250
20
255.219950
11
210.117110
21
255.134260
0
LINE
8
Layer 1
10
210.117110
20
255.134260
11
209.774340
21
254.916731
0
LINE
8
Layer 1
10
209.774340
20
254.916731
11
209.774340
21
253.174299
0
LINE
8
Layer 1
10
209.774340
20
253.174299
11
209.361250
21
253.174299
0
LINE
8
Layer 1
10
209.361250
20
253.174299
11
209.361250
21
255.628640
0
LINE
8
Layer 1
10
209.361250
20
255.628640
11
209.774340
21
255.628640
0
LINE
8
Layer 1
10
209.774340
20
255.628640
11
209.774340
21
255.266091
0
LINE
8
Layer 1
10
209.774340
20
255.266091
11
210.207200
21
255.545144
0
LINE
8
Layer 1
10
210.207200
20
255.545144
11
210.591720
21
255.628644
0
LINE
8
Layer 1
10
210.591720
20
255.628644
11
210.747730
21
255.622044
0
LINE
8
Layer 1
10
210.747730
20
255.622044
11
210.892750
21
255.602264
0
LINE
8
Layer 1
10
210.892750
20
255.602264
11
210.892770
21
255.178200
0
LINE
8
Layer 1
10
211.725530
20
256.039529
11
211.259710
21
256.039529
0
LINE
8
Layer 1
10
211.259710
20
256.039529
11
211.259710
21
256.467995
0
LINE
8
Layer 1
10
211.259710
20
256.467995
11
211.725530
21
256.467995
0
LINE
8
Layer 1
10
211.725530
20
256.467995
11
211.725530
21
256.039529
0
LINE
8
Layer 1
10
211.699130
20
253.174294
11
211.286050
21
253.174294
0
LINE
8
Layer 1
10
211.286050
20
253.174294
11
211.286050
21
255.628640
0
LINE
8
Layer 1
10
211.286050
20
255.628640
11
211.699130
21
255.628640
0
LINE
8
Layer 1
10
211.699130
20
255.628640
11
211.699130
21
253.174294
0
LINE
8
Layer 1
10
214.507240
20
253.174294
11
214.094150
21
253.174294
0
LINE
8
Layer 1
10
214.094150
20
253.174294
11
214.094150
21
253.431374
0
LINE
8
Layer 1
10
214.094150
20
253.431374
11
213.722810
21
253.191872
0
LINE
8
Layer 1
10
213.722810
20
253.191872
11
213.303140
21
253.106182
0
LINE
8
Layer 1
10
213.303140
20
253.106182
11
212.908727
21
253.190777
0
LINE
8
Layer 1
10
212.908727
20
253.190777
11
212.604410
21
253.444561
0
LINE
8
Layer 1
10
212.604410
20
253.444561
11
212.411600
21
253.848309
0
LINE
8
Layer 1
10
212.411600
20
253.848309
11
212.347330
21
254.382793
0
LINE
8
Layer 1
10
212.347330
20
254.382793
11
212.435230
21
254.938702
0
LINE
8
Layer 1
10
212.435230
20
254.938702
11
212.676930
21
255.353985
0
LINE
8
Layer 1
10
212.676930
20
255.353985
11
213.024090
21
255.608868
0
LINE
8
Layer 1
10
213.024090
20
255.608868
11
213.437180
21
255.696758
0
LINE
8
Layer 1
10
213.437180
20
255.696758
11
213.779950
21
255.655008
0
LINE
8
Layer 1
10
213.779950
20
255.655008
11
214.094160
21
255.529764
0
LINE
8
Layer 1
10
214.094160
20
255.529764
11
214.094160
21
256.593240
0
LINE
8
Layer 1
10
214.094160
20
256.593240
11
214.507250
21
256.593240
0
LINE
8
Layer 1
10
214.507250
20
256.593240
11
214.507240
21
253.174294
0
LINE
8
Layer 1
10
214.094150
20
253.778542
11
214.094150
21
255.186990
0
LINE
8
Layer 1
10
214.094150
20
255.186990
11
213.795320
21
255.290261
0
LINE
8
Layer 1
10
213.795320
20
255.290261
11
213.507480
21
255.318821
0
LINE
8
Layer 1
10
213.507480
20
255.318821
11
212.966950
21
255.077122
0
LINE
8
Layer 1
10
212.966950
20
255.077122
11
212.773590
21
254.391575
0
LINE
8
Layer 1
10
212.773590
20
254.391575
11
212.923010
21
253.725804
0
LINE
8
Layer 1
10
212.923010
20
253.725804
11
213.402010
21
253.499486
0
LINE
8
Layer 1
10
213.402010
20
253.499486
11
213.757970
21
253.576386
0
LINE
8
Layer 1
10
213.757970
20
253.576386
11
214.094150
21
253.778534
0
LINE
8
Layer 1
10
214.094150
20
253.778534
11
214.094150
21
253.778542
0
LINE
8
Layer 1
10
217.374670
20
254.358620
11
215.566320
21
254.358620
0
LINE
8
Layer 1
10
215.566320
20
254.358620
11
215.634420
21
253.963113
0
LINE
8
Layer 1
10
215.634420
20
253.963113
11
215.821190
21
253.688454
0
LINE
8
Layer 1
10
215.821190
20
253.688454
11
216.091460
21
253.530251
0
LINE
8
Layer 1
10
216.091460
20
253.530251
11
216.438620
21
253.477521
0
LINE
8
Layer 1
10
216.438620
20
253.477521
11
216.941800
21
253.576401
0
LINE
8
Layer 1
10
216.941800
20
253.576401
11
217.304350
21
253.774155
0
LINE
8
Layer 1
10
217.304350
20
253.774155
11
217.326350
21
253.774155
0
LINE
8
Layer 1
10
217.326350
20
253.774155
11
217.326350
21
253.323715
0
LINE
8
Layer 1
10
217.326350
20
253.323715
11
216.900080
21
253.176499
0
LINE
8
Layer 1
10
216.900080
20
253.176499
11
216.443050
21
253.117169
0
LINE
8
Layer 1
10
216.443050
20
253.117169
11
215.899227
21
253.199567
0
LINE
8
Layer 1
10
215.899227
20
253.199567
11
215.489440
21
253.446759
0
LINE
8
Layer 1
10
215.489440
20
253.446759
11
215.232355
21
253.847760
0
LINE
8
Layer 1
10
215.232355
20
253.847760
11
215.146660
21
254.387189
0
LINE
8
Layer 1
10
215.146660
20
254.387189
11
215.228508
21
254.927167
0
LINE
8
Layer 1
10
215.228508
20
254.927167
11
215.474050
21
255.342999
0
LINE
8
Layer 1
10
215.474050
20
255.342999
11
215.855277
21
255.608319
0
LINE
8
Layer 1
10
215.855277
20
255.608319
11
216.339780
21
255.696759
0
LINE
8
Layer 1
10
216.339780
20
255.696759
11
216.779233
21
255.624249
0
LINE
8
Layer 1
10
216.779233
20
255.624249
11
217.104430
21
255.406720
0
LINE
8
Layer 1
10
217.104430
20
255.406720
11
217.307125
21
255.055707
0
LINE
8
Layer 1
10
217.307125
20
255.055707
11
217.374690
21
254.582746
0
LINE
8
Layer 1
10
217.374690
20
254.582746
11
217.374670
21
254.358620
0
LINE
8
Layer 1
10
216.972570
20
254.675027
11
216.807770
21
255.178200
0
LINE
8
Layer 1
10
216.807770
20
255.178200
11
216.317780
21
255.356179
0
LINE
8
Layer 1
10
216.317780
20
255.356179
11
215.788240
21
255.160622
0
LINE
8
Layer 1
10
215.788240
20
255.160622
11
215.566320
21
254.675027
0
LINE
8
Layer 1
10
215.566320
20
254.675027
11
216.972570
21
254.675027
 0 
ENDSEC
 0 
EOF